<svg width="60" height="60" fill="none" xmlns="http://www.w3.org/2000/svg"><rect x=".5" y=".5" width="59" height="59" rx="19.5" stroke="#F3EAFF"/><g clip-path="url(#clip0_1_399)"><path d="M38.395 28.804c-.422 0-.818.07-1.19.217v-6.23h-6.217c.135-.371.205-.78.205-1.203A3.587 3.587 0 0027.605 18a3.587 3.587 0 00-3.589 3.588c0 .423.07.826.205 1.203H18.01v6.953a3.565 3.565 0 012.398-.934 3.587 3.587 0 013.589 3.589 3.587 3.587 0 01-3.589 3.588 3.565 3.565 0 01-2.398-.934V42h19.202v-6.23c.371.14.768.217 1.19.217A3.583 3.583 0 0041.99 32.4a3.59 3.59 0 00-3.595-3.595z" fill="#272643"/></g><defs><clipPath id="clip0_1_399"><path fill="#fff" transform="translate(18 18)" d="M0 0h24v24H0z"/></clipPath></defs></svg>