<svg width="42" height="42" fill="none" xmlns="http://www.w3.org/2000/svg"><g clip-path="url(#clip0_9_4389)"><path d="M39.517 32.736l-.217-.469c-.65-1.537-8.665-3.893-9.329-3.93l-.531.04c-1.093.225-2.297 1.26-4.823 3.5-2.847-1.317-6.746-4.828-8.584-6.902-1.99-2.242-4.473-6.013-5.365-8.83 2.882-2.554 4.083-3.663 4.16-4.896.04-.665-1.335-8.899-2.783-9.734l-.434-.273C10.69.648 9.296-.25 7.748.065a3.38 3.38 0 00-1.082.437c-1.038.656-3.581 2.42-4.741 4.728C1.209 6.666.883 19.778 10.71 30.86 18.998 40.212 28.928 41.928 32.78 42h.508c.403-.009.713-.037.903-.076l.052-.008.16-.05c2.43-.87 4.487-3.185 5.26-4.14 1.428-1.766.408-3.865-.145-4.99z" fill="#272643"/></g><defs><clipPath id="clip0_9_4389"><path fill="#fff" d="M0 0h42v42H0z"/></clipPath></defs></svg>