<svg width="345" height="21" fill="none" xmlns="http://www.w3.org/2000/svg"><path d="M7.42 12.34c0-3.612-5.264-2.044-5.264-4.564 0-1.05.826-1.596 1.876-1.568 1.19.014 1.806.756 1.89 1.414h1.4C7.168 6.138 5.95 5.116 4.088 5.116 2.156 5.116.854 6.208.854 7.818c0 3.626 5.278 1.946 5.278 4.578 0 .924-.728 1.624-1.96 1.624-1.358 0-1.932-.812-2.016-1.624H.798c.028 1.61 1.414 2.702 3.374 2.702 2.114 0 3.248-1.372 3.248-2.758zm8.679-5.012h-1.274v4.214c0 1.652-.882 2.464-2.198 2.464-1.288 0-2.142-.798-2.142-2.352V7.328h-1.26v4.494c0 2.198 1.386 3.29 3.15 3.29 1.022 0 1.96-.448 2.45-1.246V15h1.274V7.328zM23.864 15h1.26v-4.522c0-2.198-1.358-3.29-3.136-3.29-1.036 0-1.96.434-2.464 1.232V7.328H18.25V15h1.274v-4.242c0-1.652.896-2.464 2.198-2.464 1.288 0 2.142.798 2.142 2.366V15zm29.214 0h1.274V7.762L57.586 15h.896l3.22-7.224V15h1.274V5.312h-1.358l-3.584 8.008-3.584-8.008h-1.372V15zm19.339-3.85c0-2.422-1.694-3.948-3.878-3.948-2.17 0-3.878 1.526-3.878 3.948 0 2.436 1.652 3.976 3.822 3.976 2.184 0 3.934-1.54 3.934-3.976zm-6.454 0c0-1.932 1.218-2.842 2.562-2.842 1.316 0 2.59.91 2.59 2.842 0 1.946-1.302 2.856-2.632 2.856s-2.52-.91-2.52-2.856zM79.706 15h1.26v-4.522c0-2.198-1.358-3.29-3.136-3.29-1.036 0-1.96.434-2.464 1.232V7.328h-1.274V15h1.274v-4.242c0-1.652.896-2.464 2.198-2.464 1.288 0 2.142.798 2.142 2.366V15zm27.77-8.722h2.674V15h1.274V6.278h2.66V5.242h-6.608v1.036zm14.98 1.05h-1.274v4.214c0 1.652-.882 2.464-2.198 2.464-1.288 0-2.142-.798-2.142-2.352V7.328h-1.26v4.494c0 2.198 1.386 3.29 3.15 3.29 1.022 0 1.96-.448 2.45-1.246V15h1.274V7.328zm5.413.952c1.316 0 2.436.826 2.422 2.324h-4.844c.14-1.498 1.176-2.324 2.422-2.324zm3.584 4.354h-1.372c-.28.826-1.008 1.414-2.156 1.414-1.302 0-2.394-.854-2.492-2.408h6.132c.028-.266.042-.49.042-.77 0-2.1-1.456-3.668-3.682-3.668-2.24 0-3.794 1.526-3.794 3.948 0 2.436 1.61 3.976 3.794 3.976 1.904 0 3.136-1.092 3.528-2.492zm29.599 2.38l1.414-.014 2.352-7.854L167.086 15h1.428l2.828-9.758h-1.372l-2.142 8.246-2.24-8.246h-1.428l-2.352 8.274-2.128-8.274h-1.358l2.73 9.772zm14.946-6.734c1.316 0 2.436.826 2.422 2.324h-4.844c.14-1.498 1.176-2.324 2.422-2.324zm3.584 4.354h-1.372c-.28.826-1.008 1.414-2.156 1.414-1.302 0-2.394-.854-2.492-2.408h6.132c.028-.266.042-.49.042-.77 0-2.1-1.456-3.668-3.682-3.668-2.24 0-3.794 1.526-3.794 3.948 0 2.436 1.61 3.976 3.794 3.976 1.904 0 3.136-1.092 3.528-2.492zm1.36-1.498c0 2.38 1.582 3.99 3.64 3.99 1.4 0 2.394-.714 2.856-1.568V15h1.288V4.64h-1.288V8.7c-.532-.882-1.638-1.498-2.842-1.498-2.072 0-3.654 1.54-3.654 3.934zm6.496.014c0 1.806-1.204 2.856-2.604 2.856-1.4 0-2.59-1.064-2.59-2.87s1.19-2.828 2.59-2.828 2.604 1.064 2.604 2.842zm28.038-4.872h2.674V15h1.274V6.278h2.66V5.242h-6.608v1.036zM223.652 15h1.274v-4.242c0-1.652.896-2.464 2.198-2.464 1.288 0 2.142.798 2.142 2.366V15h1.26v-4.522c0-2.198-1.358-3.29-3.066-3.29-1.078 0-2.03.434-2.534 1.246V4.64h-1.274V15zm15.759-7.672h-1.274v4.214c0 1.652-.882 2.464-2.198 2.464-1.288 0-2.142-.798-2.142-2.352V7.328h-1.26v4.494c0 2.198 1.386 3.29 3.15 3.29 1.022 0 1.96-.448 2.45-1.246V15h1.274V7.328zM274.078 15h1.274v-4.396h3.444V9.568h-3.444v-3.29h4.242V5.242h-5.516V15zm8.329-4.172c0-1.778.924-2.324 2.142-2.324h.336V7.188c-1.218 0-2.044.532-2.478 1.386V7.328h-1.274V15h1.274v-4.172zM286.355 15h1.274V7.328h-1.274V15zm.658-8.918c.462 0 .84-.378.84-.868a.849.849 0 00-.84-.868.855.855 0 00-.868.868c0 .49.378.868.868.868zm42.407 6.258c0-3.612-5.264-2.044-5.264-4.564 0-1.05.826-1.596 1.876-1.568 1.19.014 1.806.756 1.89 1.414h1.4c-.154-1.484-1.372-2.506-3.234-2.506-1.932 0-3.234 1.092-3.234 2.702 0 3.626 5.278 1.946 5.278 4.578 0 .924-.728 1.624-1.96 1.624-1.358 0-1.932-.812-2.016-1.624h-1.358c.028 1.61 1.414 2.702 3.374 2.702 2.114 0 3.248-1.372 3.248-2.758zm1.399-1.204c0 2.38 1.582 3.99 3.626 3.99 1.414 0 2.408-.728 2.87-1.554V15h1.288V7.328h-1.288v1.4c-.448-.798-1.428-1.526-2.856-1.526-2.058 0-3.64 1.54-3.64 3.934zm6.496.014c0 1.806-1.204 2.856-2.604 2.856-1.4 0-2.59-1.064-2.59-2.87s1.19-2.828 2.59-2.828 2.604 1.064 2.604 2.842zm3.721 1.75c0 1.54.77 2.1 2.128 2.1h1.148v-1.078h-.938c-.784 0-1.064-.266-1.064-1.022V8.378h2.002v-1.05h-2.002V5.396h-1.274v1.932h-.994v1.05h.994V12.9z" fill="#000" fill-opacity=".6"/></svg>