<svg width="344" height="299" fill="none" xmlns="http://www.w3.org/2000/svg"><rect y="299" width="299" height="20" rx="10" transform="rotate(-90 0 299)" fill="#ECECEC"/><rect y="299" width="227.583" height="20" rx="10" transform="rotate(-90 0 299)" fill="#3F9AE0"/><rect y="299" width="227.583" height="20" rx="10" transform="rotate(-90 0 299)" stroke="#fff"/><rect y="299" width="182.828" height="20" rx="10" transform="rotate(-90 0 299)" fill="#FF9B52"/><rect y="299" width="182.828" height="20" rx="10" transform="rotate(-90 0 299)" stroke="#fff"/><rect y="299" width="75.226" height="20" rx="10" transform="rotate(-90 0 299)" fill="#2BC155"/><rect y="299" width="75.226" height="20" rx="10" transform="rotate(-90 0 299)" stroke="#fff"/><rect x="54" y="299" width="299" height="20" rx="10" transform="rotate(-90 54 299)" fill="#ECECEC"/><rect x="54" y="299" width="272.338" height="20" rx="10" transform="rotate(-90 54 299)" fill="#3F9AE0"/><rect x="54" y="299" width="272.338" height="20" rx="10" transform="rotate(-90 54 299)" stroke="#fff"/><rect x="54" y="299" width="242.818" height="20" rx="10" transform="rotate(-90 54 299)" fill="#FF9B52"/><rect x="54" y="299" width="242.818" height="20" rx="10" transform="rotate(-90 54 299)" stroke="#fff"/><rect x="54" y="299" width="131.408" height="20" rx="10" transform="rotate(-90 54 299)" fill="#2BC155"/><rect x="54" y="299" width="131.408" height="20" rx="10" transform="rotate(-90 54 299)" stroke="#fff"/><rect x="108" y="299" width="299" height="20" rx="10" transform="rotate(-90 108 299)" fill="#ECECEC"/><rect x="108" y="299" width="189.494" height="20" rx="10" transform="rotate(-90 108 299)" fill="#3F9AE0"/><rect x="108" y="299" width="189.494" height="20" rx="10" transform="rotate(-90 108 299)" stroke="#fff"/><rect x="108" y="299" width="75.226" height="20" rx="10" transform="rotate(-90 108 299)" fill="#FF9B52"/><rect x="108" y="299" width="75.226" height="20" rx="10" transform="rotate(-90 108 299)" stroke="#fff"/><rect x="108" y="299" width="24.758" height="20" rx="10" transform="rotate(-90 108 299)" fill="#2BC155"/><rect x="108" y="299" width="24.758" height="20" rx="10" transform="rotate(-90 108 299)" stroke="#fff"/><rect x="162" y="299" width="299" height="20" rx="10" transform="rotate(-90 162 299)" fill="#ECECEC"/><rect x="162" y="299" width="216.156" height="20" rx="10" transform="rotate(-90 162 299)" fill="#3F9AE0"/><rect x="162" y="299" width="216.156" height="20" rx="10" transform="rotate(-90 162 299)" stroke="#fff"/><rect x="162" y="299" width="131.408" height="20" rx="10" transform="rotate(-90 162 299)" fill="#FF9B52"/><rect x="162" y="299" width="131.408" height="20" rx="10" transform="rotate(-90 162 299)" stroke="#fff"/><rect x="162" y="299" width="108.554" height="20" rx="10" transform="rotate(-90 162 299)" fill="#2BC155"/><rect x="162" y="299" width="108.554" height="20" rx="10" transform="rotate(-90 162 299)" stroke="#fff"/><rect x="324" y="299" width="299" height="20" rx="10" transform="rotate(-90 324 299)" fill="#ECECEC"/><rect x="324" y="299" width="216.156" height="20" rx="10" transform="rotate(-90 324 299)" fill="#3F9AE0"/><rect x="324" y="299" width="216.156" height="20" rx="10" transform="rotate(-90 324 299)" stroke="#fff"/><rect x="324" y="299" width="131.408" height="20" rx="10" transform="rotate(-90 324 299)" fill="#FF9B52"/><rect x="324" y="299" width="131.408" height="20" rx="10" transform="rotate(-90 324 299)" stroke="#fff"/><rect x="324" y="299" width="108.554" height="20" rx="10" transform="rotate(-90 324 299)" fill="#2BC155"/><rect x="324" y="299" width="108.554" height="20" rx="10" transform="rotate(-90 324 299)" stroke="#fff"/><rect x="216" y="299" width="299" height="20" rx="10" transform="rotate(-90 216 299)" fill="#ECECEC"/><rect x="216" y="299" width="272.338" height="20" rx="10" transform="rotate(-90 216 299)" fill="#3F9AE0"/><rect x="216" y="299" width="272.338" height="20" rx="10" transform="rotate(-90 216 299)" stroke="#fff"/><rect x="216" y="299" width="224.726" height="20" rx="10" transform="rotate(-90 216 299)" fill="#FF9B52"/><rect x="216" y="299" width="224.726" height="20" rx="10" transform="rotate(-90 216 299)" stroke="#fff"/><rect x="216" y="299" width="188.541" height="20" rx="10" transform="rotate(-90 216 299)" fill="#2BC155"/><rect x="216" y="299" width="188.541" height="20" rx="10" transform="rotate(-90 216 299)" stroke="#fff"/><rect x="270" y="299" width="299" height="20" rx="10" transform="rotate(-90 270 299)" fill="#ECECEC"/><rect x="270" y="299" width="242.818" height="20" rx="10" transform="rotate(-90 270 299)" fill="#3F9AE0"/><rect x="270" y="299" width="242.818" height="20" rx="10" transform="rotate(-90 270 299)" stroke="#fff"/><rect x="270" y="299" width="104.745" height="20" rx="10" transform="rotate(-90 270 299)" fill="#FF9B52"/><rect x="270" y="299" width="104.745" height="20" rx="10" transform="rotate(-90 270 299)" stroke="#fff"/><rect x="270" y="299" width="34.28" height="20" rx="10" transform="rotate(-90 270 299)" fill="#2BC155"/><rect x="270" y="299" width="34.28" height="20" rx="10" transform="rotate(-90 270 299)" stroke="#fff"/></svg>