<svg width="41" height="41" fill="none" xmlns="http://www.w3.org/2000/svg"><g clip-path="url(#clip0_9_4347)" fill="#272643"><path d="M33.047 38.833c.351 0 .698.134.962.389 1.687 1.628 4.147 2.17 6.334 1.492a12.272 12.272 0 01-.512-9.403c1.354-3.87 1.694-7.75.153-11.64a14.93 14.93 0 00-7.272-7.877 17.85 17.85 0 01.306 3.305c0 4.739-1.822 9.196-5.13 12.55-3.31 3.355-7.745 5.241-12.49 5.312-.882.013-1.76-.038-2.627-.153a15.197 15.197 0 0012.93 7.629 14.987 14.987 0 006.749-1.469c.19-.09.394-.135.596-.135z"/><path d="M15.436.003C7.018-.164.02 6.646 0 15.062a14.98 14.98 0 001.193 5.926c.012.027.022.055.032.082a12.272 12.272 0 01-.512 9.404c2.188.678 4.648.136 6.335-1.493a1.385 1.385 0 011.559-.253 14.968 14.968 0 006.748 1.468c8.352-.123 14.894-6.755 14.894-15.097C30.25 6.94 23.604.168 15.436.003zM7.057 17.354c-1.21 0-2.19-.979-2.19-2.186 0-1.207.98-2.186 2.19-2.186s2.19.979 2.19 2.186c0 1.207-.98 2.186-2.19 2.186zm8.068 0c-1.21 0-2.19-.979-2.19-2.186 0-1.207.98-2.186 2.19-2.186s2.19.979 2.19 2.186c0 1.207-.98 2.186-2.19 2.186zm8.067 0a2.189 2.189 0 01-2.19-2.186c0-1.207.981-2.186 2.19-2.186 1.21 0 2.19.979 2.19 2.186 0 1.207-.98 2.186-2.19 2.186z"/></g><defs><clipPath id="clip0_9_4347"><path fill="#fff" d="M0 0h41v41H0z"/></clipPath></defs></svg>