<svg width="69" height="69" fill="none" xmlns="http://www.w3.org/2000/svg"><rect x=".5" y=".5" width="68" height="68" rx="14.5" stroke="#DCD7E8"/><g clip-path="url(#clip0_1_471)"><path fill-rule="evenodd" clip-rule="evenodd" d="M28.181 35.008a29.889 29.889 0 01-.48-.428c-2.326-2.186-3.85-5.609-3.85-9.466 0-6.736 4.636-12.073 10.15-12.073s10.15 5.337 10.15 12.073c0 3.854-1.522 7.274-3.842 9.464-.097.092-.37.334-.485.434l-.01.168a2.458 2.458 0 001.71 2.183c7.204 2.278 12.427 7.722 13.304 14.175a3.002 3.002 0 01-2.974 3.42l-35.706.001a3.004 3.004 0 01-2.976-3.415c.88-6.459 6.102-11.903 13.306-14.181a2.458 2.458 0 001.71-2.19l-.007-.165z" fill="#fff"/></g><defs><clipPath id="clip0_1_471"><path fill="#fff" transform="translate(13 13)" d="M0 0h42v42H0z"/></clipPath></defs></svg>