<svg width="152" height="152" fill="none" xmlns="http://www.w3.org/2000/svg"><mask id="a" fill="#fff"><path d="M76 0a75.998 75.998 0 0168.252 109.432A75.998 75.998 0 01.009 74.816a76 76 0 0117.425-47.251l7.584 6.272A66.158 66.158 0 1076 9.842V0z"/></mask><path d="M76 0v-44H32V0h44zm47.517 16.686l-27.51 34.34 27.51-34.34zm20.735 92.746l39.514 19.355-39.514-19.355zm-35.888 35.332l-18.737-39.811 18.737 39.811zm-50.099 5.138l10.268-42.785-10.268 42.785zm-42.312-27.314L-18.81 149.56l34.764-26.972zM.01 74.816l43.995.686L.01 74.816zm17.425-47.251l28.04-33.907-33.907-28.042L-16.473-.477l33.907 28.042zm7.584 6.272l33.907 28.041 28.041-33.906L53.06-.07 25.018 33.837zM9.85 74.969l-43.995-.685 43.995.685zm13.88 41.586l-34.764 26.972 34.763-26.972zm36.832 23.777l-10.268 42.785 10.268-42.785zm43.611-4.472L85.436 96.049l18.737 39.811zm31.241-30.758l39.514 19.355-39.514-19.355zm-18.05-80.735l-27.51 34.34 27.51-34.34zM76 9.842H32v44h44v-44zM76 44a32 32 0 0120.007 7.026l55.02-68.68A119.997 119.997 0 0076-44v88zm20.007 7.026a32 32 0 0111.222 17.992l85.88-19.2a119.999 119.999 0 00-42.082-67.471l-55.02 68.679zm11.222 17.992a32.004 32.004 0 01-2.491 21.058l79.028 38.711a120 120 0 009.343-78.969l-85.88 19.2zm-2.491 21.058a31.999 31.999 0 01-15.11 14.877l37.474 79.622a119.99 119.99 0 0056.664-55.788l-79.028-38.71zm-15.11 14.877a32 32 0 01-21.095 2.164l-20.535 85.57a120 120 0 0079.104-8.112l-37.475-79.622zm-21.095 2.164a32.003 32.003 0 01-17.816-11.501L-18.81 149.56a120.003 120.003 0 0066.808 43.127l20.535-85.57zM50.717 95.616a32 32 0 01-6.713-20.114l-87.99-1.371A120.002 120.002 0 00-18.81 149.56l69.527-53.944zm-6.713-20.114a32 32 0 017.337-19.896L-16.473-.477a120 120 0 00-27.512 74.608l87.989 1.37zm-54.612-14.03l7.584 6.272L53.06-.07l-7.584-6.272-56.083 67.813zm1.72-55.677a110.159 110.159 0 00-25.257 68.49l87.99 1.37a22.158 22.158 0 015.08-13.777L-8.89 5.795zm-25.257 68.49a110.161 110.161 0 0023.11 69.242l69.528-53.944a22.158 22.158 0 01-4.649-13.928l-87.989-1.37zm23.11 69.242a110.16 110.16 0 0061.33 39.59l20.534-85.57a22.158 22.158 0 01-12.336-7.964l-69.527 53.944zm61.33 39.59a110.16 110.16 0 0072.616-7.446L85.436 96.049a22.158 22.158 0 01-14.607 1.497l-20.535 85.571zm72.616-7.446a110.163 110.163 0 0052.017-51.214l-79.029-38.71A22.158 22.158 0 0185.436 96.05l37.475 79.622zm52.017-51.214a110.162 110.162 0 008.576-72.491l-85.88 19.2a22.158 22.158 0 01-1.724 14.58l79.029 38.71zm8.576-72.491a110.157 110.157 0 00-38.63-61.938l-55.02 68.679a22.158 22.158 0 017.77 12.458l85.88-19.2zm-38.63-61.938A110.157 110.157 0 0076-34.158v88c5.037 0 9.923 1.716 13.854 4.865l55.02-68.68zM120 9.842V0H32v9.842h88z" fill="url(#paint0_linear_10_4)" mask="url(#a)"/><defs><linearGradient id="paint0_linear_10_4" x1="120" y1="18" x2="11" y2="94.5" gradientUnits="userSpaceOnUse"><stop stop-color="#40189D"/><stop offset="1" stop-color="#7A189D"/></linearGradient></defs></svg>