<svg width="49" height="49" fill="none" xmlns="http://www.w3.org/2000/svg"><rect width="49" height="49" rx="18" fill="#3D6AD6"/><path d="M22.705 25.24h-2.386c-.375 0-.509-.135-.509-.513v-2.911c0-.373.142-.515.512-.516h2.383v-2.113c0-.953.17-1.866.655-2.702.496-.856 1.218-1.442 2.143-1.78a5.298 5.298 0 011.837-.305c.786 0 1.573 0 2.36.002.338 0 .488.15.489.49v2.738c0 .344-.144.483-.49.486-.645.007-1.29.003-1.935.029-.65 0-.992.318-.992.991-.016.713-.007 1.425-.007 2.164h2.778c.393 0 .527.135.527.53v2.896c0 .389-.127.513-.523.514h-2.79v7.81c0 .417-.131.55-.542.55H23.21c-.364 0-.505-.141-.505-.505V25.24z" fill="#fff"/></svg>