<svg width="664" height="262" fill="none" xmlns="http://www.w3.org/2000/svg"><path d="M271.868 251.834c0-1.605.261-2.856.784-3.752.523-.905 1.437-1.358 2.744-1.358 1.297 0 2.207.453 2.73 1.358.523.896.784 2.147.784 3.752 0 1.633-.261 2.903-.784 3.808-.523.905-1.433 1.358-2.73 1.358-1.307 0-2.221-.453-2.744-1.358-.523-.905-.784-2.175-.784-3.808zm5.782 0c0-.812-.056-1.498-.168-2.058-.103-.569-.322-1.027-.658-1.372-.327-.345-.803-.518-1.428-.518-.635 0-1.12.173-1.456.518-.327.345-.546.803-.658 1.372-.103.56-.154 1.246-.154 2.058 0 .84.051 1.545.154 2.114.112.569.331 1.027.658 1.372.336.345.821.518 1.456.518.625 0 1.101-.173 1.428-.518.336-.345.555-.803.658-1.372.112-.569.168-1.274.168-2.114zm8.651-2.548c-.205-1.036-.845-1.554-1.918-1.554-.831 0-1.451.322-1.862.966-.411.635-.611 1.685-.602 3.15a2.364 2.364 0 011.064-1.134 3.4 3.4 0 011.68-.42c.961 0 1.727.299 2.296.896.579.597.868 1.423.868 2.478 0 .635-.126 1.204-.378 1.708a2.787 2.787 0 01-1.12 1.204c-.495.299-1.097.448-1.806.448-.961 0-1.713-.215-2.254-.644-.541-.429-.919-1.022-1.134-1.778-.215-.756-.322-1.689-.322-2.8 0-3.425 1.195-5.138 3.584-5.138.915 0 1.633.247 2.156.742.523.495.831 1.12.924 1.876h-1.176zm-1.904 2.086c-.401 0-.779.084-1.134.252a2.02 2.02 0 00-.868.742c-.215.327-.322.728-.322 1.204 0 .709.205 1.288.616 1.736.411.439.999.658 1.764.658.653 0 1.171-.201 1.554-.602.392-.411.588-.961.588-1.652 0-.728-.187-1.297-.56-1.708-.373-.42-.919-.63-1.638-.63zm-61.529.462c0-1.605.261-2.856.784-3.752.523-.905 1.437-1.358 2.744-1.358 1.297 0 2.207.453 2.73 1.358.523.896.784 2.147.784 3.752 0 1.633-.261 2.903-.784 3.808-.523.905-1.433 1.358-2.73 1.358-1.307 0-2.221-.453-2.744-1.358-.523-.905-.784-2.175-.784-3.808zm5.782 0c0-.812-.056-1.498-.168-2.058-.103-.569-.322-1.027-.658-1.372-.327-.345-.803-.518-1.428-.518-.635 0-1.12.173-1.456.518-.327.345-.546.803-.658 1.372-.103.56-.154 1.246-.154 2.058 0 .84.051 1.545.154 2.114.112.569.331 1.027.658 1.372.336.345.821.518 1.456.518.625 0 1.101-.173 1.428-.518.336-.345.555-.803.658-1.372.112-.569.168-1.274.168-2.114zm9.463-3.85h-4.914v3.192c.215-.299.532-.541.952-.728.42-.196.873-.294 1.358-.294.775 0 1.405.163 1.89.49.485.317.831.733 1.036 1.246a4.06 4.06 0 01.322 1.61c0 .672-.126 1.274-.378 1.806a2.855 2.855 0 01-1.162 1.26c-.513.308-1.153.462-1.918.462-.98 0-1.773-.252-2.38-.756s-.975-1.176-1.106-2.016h1.246c.121.532.378.947.77 1.246.392.299.887.448 1.484.448.737 0 1.293-.219 1.666-.658.373-.448.56-1.036.56-1.764s-.187-1.288-.56-1.68c-.373-.401-.924-.602-1.652-.602-.495 0-.929.121-1.302.364-.364.233-.63.555-.798.966h-1.204v-5.712h6.09v1.12zm-64.245 3.85c0-1.605.261-2.856.784-3.752.523-.905 1.437-1.358 2.744-1.358 1.297 0 2.207.453 2.73 1.358.523.896.784 2.147.784 3.752 0 1.633-.261 2.903-.784 3.808-.523.905-1.433 1.358-2.73 1.358-1.307 0-2.221-.453-2.744-1.358-.523-.905-.784-2.175-.784-3.808zm5.782 0c0-.812-.056-1.498-.168-2.058-.103-.569-.322-1.027-.658-1.372-.327-.345-.803-.518-1.428-.518-.635 0-1.12.173-1.456.518-.327.345-.546.803-.658 1.372-.103.56-.154 1.246-.154 2.058 0 .84.051 1.545.154 2.114.112.569.331 1.027.658 1.372.336.345.821.518 1.456.518.625 0 1.101-.173 1.428-.518.336-.345.555-.803.658-1.372.112-.569.168-1.274.168-2.114zm2.701 2.912v-.966l4.914-6.804h1.526v6.664h1.4v1.106h-1.4V257h-1.26v-2.254h-5.18zm5.236-6.44l-3.766 5.334h3.766v-5.334zm-62.719 3.528c0-1.605.261-2.856.784-3.752.523-.905 1.437-1.358 2.744-1.358 1.297 0 2.207.453 2.73 1.358.523.896.784 2.147.784 3.752 0 1.633-.261 2.903-.784 3.808-.523.905-1.433 1.358-2.73 1.358-1.307 0-2.221-.453-2.744-1.358-.523-.905-.784-2.175-.784-3.808zm5.782 0c0-.812-.056-1.498-.168-2.058-.103-.569-.322-1.027-.658-1.372-.327-.345-.803-.518-1.428-.518-.635 0-1.12.173-1.456.518-.327.345-.546.803-.658 1.372-.103.56-.154 1.246-.154 2.058 0 .84.051 1.545.154 2.114.112.569.331 1.027.658 1.372.336.345.821.518 1.456.518.625 0 1.101-.173 1.428-.518.336-.345.555-.803.658-1.372.112-.569.168-1.274.168-2.114zm2.981-2.408c.065-.859.397-1.531.994-2.016.597-.485 1.372-.728 2.324-.728.635 0 1.181.117 1.638.35.467.224.817.532 1.05.924.243.392.364.835.364 1.33 0 .579-.168 1.078-.504 1.498-.327.42-.756.691-1.288.812v.07c.607.149 1.087.443 1.442.882s.532 1.013.532 1.722c0 .532-.121 1.013-.364 1.442-.243.42-.607.751-1.092.994-.485.243-1.069.364-1.75.364-.989 0-1.801-.257-2.436-.77-.635-.523-.989-1.26-1.064-2.212h1.232c.065.56.294 1.017.686 1.372.392.355.915.532 1.568.532s1.148-.168 1.484-.504c.345-.345.518-.789.518-1.33 0-.7-.233-1.204-.7-1.512-.467-.308-1.171-.462-2.114-.462h-.322v-1.064h.336c.859-.009 1.507-.149 1.946-.42.439-.28.658-.709.658-1.288 0-.495-.163-.891-.49-1.19-.317-.299-.775-.448-1.372-.448-.579 0-1.045.149-1.4.448-.355.299-.565.7-.63 1.204h-1.246zm-57.763 2.408c0-1.605.261-2.856.784-3.752.523-.905 1.437-1.358 2.744-1.358 1.297 0 2.207.453 2.73 1.358.523.896.784 2.147.784 3.752 0 1.633-.261 2.903-.784 3.808-.523.905-1.433 1.358-2.73 1.358-1.307 0-2.221-.453-2.744-1.358-.523-.905-.784-2.175-.784-3.808zm5.782 0c0-.812-.056-1.498-.168-2.058-.103-.569-.322-1.027-.658-1.372-.327-.345-.803-.518-1.428-.518-.635 0-1.12.173-1.456.518-.327.345-.546.803-.658 1.372-.103.56-.154 1.246-.154 2.058 0 .84.051 1.545.154 2.114.112.569.331 1.027.658 1.372.336.345.821.518 1.456.518.625 0 1.101-.173 1.428-.518.336-.345.555-.803.658-1.372.112-.569.168-1.274.168-2.114zm2.855 4.144a66.054 66.054 0 002.786-2.338 11.392 11.392 0 001.694-1.918c.467-.672.7-1.33.7-1.974 0-.607-.15-1.083-.448-1.428-.29-.355-.76-.532-1.414-.532-.635 0-1.13.201-1.484.602-.345.392-.532.919-.56 1.582h-1.232c.037-1.045.355-1.853.952-2.422.597-.569 1.367-.854 2.31-.854.961 0 1.722.266 2.282.798.57.532.854 1.265.854 2.198 0 .775-.233 1.531-.7 2.268a9.99 9.99 0 01-1.568 1.932 40.805 40.805 0 01-2.254 1.932h4.816v1.064h-6.734v-.91zm-57.637-4.144c0-1.605.261-2.856.784-3.752.523-.905 1.437-1.358 2.744-1.358 1.297 0 2.207.453 2.73 1.358.523.896.784 2.147.784 3.752 0 1.633-.261 2.903-.784 3.808-.523.905-1.433 1.358-2.73 1.358-1.307 0-2.221-.453-2.744-1.358-.523-.905-.784-2.175-.784-3.808zm5.782 0c0-.812-.056-1.498-.168-2.058-.103-.569-.322-1.027-.658-1.372-.327-.345-.803-.518-1.428-.518-.635 0-1.12.173-1.456.518-.327.345-.546.803-.658 1.372-.103.56-.154 1.246-.154 2.058 0 .84.051 1.545.154 2.114.112.569.331 1.027.658 1.372.336.345.821.518 1.456.518.625 0 1.101-.173 1.428-.518.336-.345.555-.803.658-1.372.112-.569.168-1.274.168-2.114zm2.673-3.794v-1.162h2.632V257h-1.288v-8.96h-1.344zm285.545 3.794c0-1.605.261-2.856.784-3.752.523-.905 1.437-1.358 2.744-1.358 1.297 0 2.207.453 2.73 1.358.523.896.784 2.147.784 3.752 0 1.633-.261 2.903-.784 3.808-.523.905-1.433 1.358-2.73 1.358-1.307 0-2.221-.453-2.744-1.358-.523-.905-.784-2.175-.784-3.808zm5.782 0c0-.812-.056-1.498-.168-2.058-.103-.569-.322-1.027-.658-1.372-.327-.345-.803-.518-1.428-.518-.635 0-1.12.173-1.456.518-.327.345-.546.803-.658 1.372-.103.56-.154 1.246-.154 2.058 0 .84.051 1.545.154 2.114.112.569.331 1.027.658 1.372.336.345.821.518 1.456.518.625 0 1.101-.173 1.428-.518.336-.345.555-.803.658-1.372.112-.569.168-1.274.168-2.114zm9.239-3.962L331.997 257h-1.288l3.948-9.002h-5.404v-1.092h6.636v.966zm32.979 3.962c0-1.605.261-2.856.784-3.752.523-.905 1.437-1.358 2.744-1.358 1.297 0 2.207.453 2.73 1.358.523.896.784 2.147.784 3.752 0 1.633-.261 2.903-.784 3.808-.523.905-1.433 1.358-2.73 1.358-1.307 0-2.221-.453-2.744-1.358-.523-.905-.784-2.175-.784-3.808zm5.782 0c0-.812-.056-1.498-.168-2.058-.103-.569-.322-1.027-.658-1.372-.327-.345-.803-.518-1.428-.518-.635 0-1.12.173-1.456.518-.327.345-.546.803-.658 1.372-.103.56-.154 1.246-.154 2.058 0 .84.051 1.545.154 2.114.112.569.331 1.027.658 1.372.336.345.821.518 1.456.518.625 0 1.101-.173 1.428-.518.336-.345.555-.803.658-1.372.112-.569.168-1.274.168-2.114zm4.857-.098c-.523-.205-.924-.504-1.204-.896-.28-.392-.42-.868-.42-1.428a2.5 2.5 0 01.378-1.358c.252-.411.625-.733 1.12-.966.504-.243 1.111-.364 1.82-.364.709 0 1.311.121 1.806.364.504.233.882.555 1.134.966.261.401.392.854.392 1.358a2.42 2.42 0 01-.434 1.428c-.289.401-.686.7-1.19.896.579.177 1.036.49 1.372.938.345.439.518.971.518 1.596 0 .607-.149 1.139-.448 1.596-.299.448-.723.798-1.274 1.05-.541.243-1.167.364-1.876.364-.709 0-1.335-.121-1.876-.364a3.004 3.004 0 01-1.246-1.05c-.299-.457-.448-.989-.448-1.596 0-.625.168-1.162.504-1.61.336-.448.793-.756 1.372-.924zm3.794-2.17c0-.569-.187-1.008-.56-1.316-.373-.308-.887-.462-1.54-.462-.644 0-1.153.154-1.526.462-.373.308-.56.751-.56 1.33 0 .523.191.943.574 1.26.392.317.896.476 1.512.476.625 0 1.129-.159 1.512-.476a1.58 1.58 0 00.588-1.274zm-2.1 2.73c-.691 0-1.255.163-1.694.49-.439.317-.658.798-.658 1.442 0 .597.21 1.078.63 1.442.429.364 1.003.546 1.722.546.719 0 1.288-.182 1.708-.546.42-.364.63-.845.63-1.442 0-.625-.215-1.101-.644-1.428-.429-.336-.994-.504-1.694-.504zm43.667-.462c0-1.605.261-2.856.784-3.752.523-.905 1.437-1.358 2.744-1.358 1.297 0 2.207.453 2.73 1.358.523.896.784 2.147.784 3.752 0 1.633-.261 2.903-.784 3.808-.523.905-1.433 1.358-2.73 1.358-1.307 0-2.221-.453-2.744-1.358-.523-.905-.784-2.175-.784-3.808zm5.782 0c0-.812-.056-1.498-.168-2.058-.103-.569-.322-1.027-.658-1.372-.327-.345-.803-.518-1.428-.518-.635 0-1.12.173-1.456.518-.327.345-.546.803-.658 1.372-.103.56-.154 1.246-.154 2.058 0 .84.051 1.545.154 2.114.112.569.331 1.027.658 1.372.336.345.821.518 1.456.518.625 0 1.101-.173 1.428-.518.336-.345.555-.803.658-1.372.112-.569.168-1.274.168-2.114zm4.647 2.45c.093.532.308.943.644 1.232.345.289.807.434 1.386.434.775 0 1.344-.303 1.708-.91.373-.607.551-1.629.532-3.066-.196.42-.523.751-.98.994-.457.233-.966.35-1.526.35-.625 0-1.185-.126-1.68-.378a2.853 2.853 0 01-1.148-1.134c-.28-.495-.42-1.092-.42-1.792 0-.999.289-1.801.868-2.408.579-.616 1.4-.924 2.464-.924 1.307 0 2.221.425 2.744 1.274.532.849.798 2.114.798 3.794 0 1.176-.107 2.147-.322 2.912-.205.765-.56 1.349-1.064 1.75-.495.401-1.176.602-2.044.602-.952 0-1.694-.257-2.226-.77s-.835-1.167-.91-1.96h1.176zm1.974-2.044c.625 0 1.139-.191 1.54-.574.401-.392.602-.919.602-1.582 0-.7-.196-1.265-.588-1.694-.392-.429-.943-.644-1.652-.644-.653 0-1.176.205-1.568.616-.383.411-.574.952-.574 1.624 0 .681.191 1.227.574 1.638.383.411.938.616 1.666.616zm41.261-4.2v-1.162h2.632V257h-1.288v-8.96h-1.344zm4.82 3.794c0-1.605.262-2.856.784-3.752.523-.905 1.438-1.358 2.744-1.358 1.298 0 2.208.453 2.73 1.358.523.896.784 2.147.784 3.752 0 1.633-.261 2.903-.784 3.808-.522.905-1.432 1.358-2.73 1.358-1.306 0-2.221-.453-2.744-1.358-.522-.905-.784-2.175-.784-3.808zm5.782 0c0-.812-.056-1.498-.168-2.058-.102-.569-.322-1.027-.658-1.372-.326-.345-.802-.518-1.428-.518-.634 0-1.12.173-1.456.518-.326.345-.546.803-.658 1.372-.102.56-.154 1.246-.154 2.058 0 .84.052 1.545.154 2.114.112.569.332 1.027.658 1.372.336.345.822.518 1.456.518.626 0 1.102-.173 1.428-.518.336-.345.556-.803.658-1.372.112-.569.168-1.274.168-2.114zm37.398-3.794v-1.162h2.632V257h-1.288v-8.96h-1.344zm4.484 0v-1.162h2.632V257h-1.288v-8.96h-1.344zm44.516 0v-1.162h2.632V257h-1.288v-8.96h-1.344zm4.666 7.938a65.603 65.603 0 002.786-2.338 11.378 11.378 0 001.694-1.918c.467-.672.7-1.33.7-1.974 0-.607-.149-1.083-.448-1.428-.289-.355-.76-.532-1.414-.532-.634 0-1.129.201-1.484.602-.345.392-.532.919-.56 1.582h-1.232c.038-1.045.355-1.853.952-2.422.598-.569 1.368-.854 2.31-.854.962 0 1.722.266 2.282.798.57.532.854 1.265.854 2.198 0 .775-.233 1.531-.7 2.268a9.979 9.979 0 01-1.568 1.932 40.693 40.693 0 01-2.254 1.932h4.816v1.064h-6.734v-.91zm39.334-7.938v-1.162h2.632V257h-1.288v-8.96h-1.344zm4.792 1.386c.066-.859.397-1.531.994-2.016.598-.485 1.372-.728 2.324-.728.635 0 1.181.117 1.638.35.467.224.817.532 1.05.924.243.392.364.835.364 1.33 0 .579-.168 1.078-.504 1.498-.326.42-.756.691-1.288.812v.07c.607.149 1.088.443 1.442.882.355.439.532 1.013.532 1.722 0 .532-.121 1.013-.364 1.442-.242.42-.606.751-1.092.994-.485.243-1.068.364-1.75.364-.989 0-1.801-.257-2.436-.77-.634-.523-.989-1.26-1.064-2.212h1.232c.066.56.294 1.017.686 1.372.392.355.915.532 1.568.532.654 0 1.148-.168 1.484-.504.346-.345.518-.789.518-1.33 0-.7-.233-1.204-.7-1.512-.466-.308-1.171-.462-2.114-.462h-.322v-1.064h.336c.859-.009 1.508-.149 1.946-.42.439-.28.658-.709.658-1.288 0-.495-.163-.891-.49-1.19-.317-.299-.774-.448-1.372-.448-.578 0-1.045.149-1.4.448-.354.299-.564.7-.63 1.204h-1.246z" fill="gray"/><rect y="234" width="664" height="1" rx=".5" fill="#E9ECFF"/><rect y="194" width="664" height="1" rx=".5" fill="#E9ECFF"/><rect x=".25" y="154.25" width="663.5" height=".5" rx=".25" stroke="#CECECE" stroke-width=".5" stroke-dasharray="4 8"/><rect y="113" width="664" height="1" rx=".5" fill="#E9ECFF"/><rect y="73" width="664" height="1" rx=".5" fill="#E9ECFF"/><rect y="33" width="664" height="1" rx=".5" fill="#E9ECFF"/><rect x="283.945" y="235.027" width="202.054" height=".789" rx=".395" transform="rotate(-90 283.945 235.027)" fill="#E9ECFF"/><rect x="333.734" y="235.027" width="202.054" height=".789" rx=".395" transform="rotate(-90 333.734 235.027)" fill="#E9ECFF"/><rect x="383.523" y="235.027" width="202.054" height=".789" rx=".395" transform="rotate(-90 383.523 235.027)" fill="#E9ECFF"/><rect x="433.312" y="235.027" width="202.054" height=".789" rx=".395" transform="rotate(-90 433.312 235.027)" fill="#E9ECFF"/><rect x="483.102" y="235.027" width="202.054" height=".789" rx=".395" transform="rotate(-90 483.102 235.027)" fill="#E9ECFF"/><rect x="532.891" y="235.027" width="202.054" height=".789" rx=".395" transform="rotate(-90 532.891 235.027)" fill="#E9ECFF"/><rect x="582.68" y="235.027" width="202.054" height=".789" rx=".395" transform="rotate(-90 582.68 235.027)" fill="#E9ECFF"/><rect x="632.469" y="235.027" width="202.054" height=".789" rx=".395" transform="rotate(-90 632.469 235.027)" fill="#E9ECFF"/><rect x="234.156" y="235.027" width="202.054" height=".789" rx=".395" transform="rotate(-90 234.156 235.027)" fill="#E9ECFF"/><rect x="184.367" y="235.027" width="202.054" height=".789" rx=".395" transform="rotate(-90 184.367 235.027)" fill="#E9ECFF"/><rect x="134.578" y="235.027" width="202.054" height=".789" rx=".395" transform="rotate(-90 134.578 235.027)" fill="#E9ECFF"/><rect x="84.789" y="235.027" width="202.054" height=".789" rx=".395" transform="rotate(-90 84.79 235.027)" fill="#E9ECFF"/><rect x="35" y="235.027" width="202.054" height=".789" rx=".395" transform="rotate(-90 35 235.027)" fill="#E9ECFF"/><path d="M14 208l23.749-38.819a8.999 8.999 0 017.81-4.302l17.054.251 30.731.545a9 9 0 008.502-5.621l26.949-66.559c3.111-7.682 14.074-7.432 16.83.385l8.573 24.312a9 9 0 008.523 6.007l35.822-.138a8.998 8.998 0 006.817-3.165l39.306-46.156c4.036-4.74 11.55-4.049 14.654 1.348l6.376 11.086a9 9 0 007.802 4.512h16.616a7.747 7.747 0 006.568-3.64c2.762-4.418 9.012-4.903 12.423-.963l11.989 13.847a9 9 0 006.804 3.108h7.914a9 9 0 006.997-3.339l11.173-13.81c5.091-6.292 15.253-3.19 15.962 4.873l2.658 30.221c.825 9.379 13.678 11.354 17.281 2.655l.851-2.055a8.99 8.99 0 00.43-1.319l9.024-37.146c1.986-8.176 13.104-9.399 16.82-1.85l14.832 30.127c3.074 6.246 11.771 6.786 15.595.969l25.149-38.26c3.872-5.891 12.706-5.245 15.68 1.146l18.84 40.487a9 9 0 008.16 5.203h36.371l53.862.321H629" stroke="#272643" stroke-width="4"/><path d="M14 208l24.775-10.124a9.004 9.004 0 013.437-.669l54.738.228a9.01 9.01 0 004.768-1.342l30.929-19.097a8.999 8.999 0 019.934.316l11.402 8.083a8.994 8.994 0 005.214 1.658l42.192-.04a9.005 9.005 0 002.527-.365l45.903-13.476a8.996 8.996 0 016.123.382l10.633 4.622a9.007 9.007 0 003.588.746h22.511a9 9 0 003.341-.644l3.356-1.342a9.004 9.004 0 015.839-.29l17.352 5.01a8.973 8.973 0 002.497.354h13.689c.901 0 1.797-.136 2.657-.402l18.314-5.658a9 9 0 0111.147 5.611l2.825 8.029a8.999 8.999 0 008.552 6.012l10.498-.072a9 9 0 008.645-6.721l1.834-7.007c1.453-5.554 7.663-8.346 12.782-5.746l19.237 9.769a8.999 8.999 0 007.275.388l35.098-13.35a9.002 9.002 0 017.459.484l22.46 12.066a8.993 8.993 0 004.259 1.072h39.845l53.862.08H629" stroke="#3F9AE0" stroke-width="4"/><rect x="16" y="1" width="19" height="19" rx="9.5" fill="#272643"/><path d="M51.732 13.656l-3.066-8.414h-1.358L50.99 15h1.47l3.682-9.758h-1.344l-3.066 8.414zM57.539 15h1.274V7.328h-1.274V15zm.658-8.918c.462 0 .84-.378.84-.868a.849.849 0 00-.84-.868.855.855 0 00-.868.868c0 .49.378.868.868.868zm6.05 2.198c1.315 0 2.435.826 2.421 2.324h-4.844C61.964 9.106 63 8.28 64.246 8.28zm3.583 4.354h-1.372c-.28.826-1.008 1.414-2.156 1.414-1.302 0-2.394-.854-2.492-2.408h6.132c.028-.266.042-.49.042-.77 0-2.1-1.456-3.668-3.682-3.668-2.24 0-3.794 1.526-3.794 3.948 0 2.436 1.61 3.976 3.794 3.976 1.904 0 3.136-1.092 3.528-2.492zM71.164 15h1.316l1.848-6.09L76.176 15h1.316l2.394-7.672h-1.26l-1.736 6.454-1.862-6.454h-1.302l-1.904 6.44-1.764-6.44h-1.302L71.164 15zm14.993-5.124V6.292h1.876c1.456 0 2.072.672 2.072 1.806 0 1.092-.616 1.778-2.072 1.778h-1.876zm5.25-1.778c0-1.596-1.078-2.856-3.374-2.856h-3.15V15h1.274v-4.074h1.876c2.422 0 3.374-1.344 3.374-2.828zm2.857 2.73c0-1.778.924-2.324 2.142-2.324h.336V7.188c-1.218 0-2.044.532-2.478 1.386V7.328H92.99V15h1.274v-4.172zm11.229.322c0-2.422-1.694-3.948-3.878-3.948-2.17 0-3.878 1.526-3.878 3.948 0 2.436 1.652 3.976 3.822 3.976 2.184 0 3.934-1.54 3.934-3.976zm-6.454 0c0-1.932 1.218-2.842 2.562-2.842 1.316 0 2.59.91 2.59 2.842 0 1.946-1.302 2.856-2.632 2.856s-2.52-.91-2.52-2.856zm8.367 3.85h1.274V8.378h1.61v-1.05h-1.61v-.546c0-.994.378-1.414 1.526-1.414V4.304c-1.96 0-2.8.77-2.8 2.478v.546h-.994v1.05h.994V15zm4.369 0h1.274V7.328h-1.274V15zm.658-8.918c.462 0 .84-.378.84-.868a.849.849 0 00-.84-.868.855.855 0 00-.868.868c0 .49.378.868.868.868zM115.221 15h1.274V4.64h-1.274V15zm6.707-6.72c1.316 0 2.436.826 2.422 2.324h-4.844c.14-1.498 1.176-2.324 2.422-2.324zm3.584 4.354h-1.372c-.28.826-1.008 1.414-2.156 1.414-1.302 0-2.394-.854-2.492-2.408h6.132c.028-.266.042-.49.042-.77 0-2.1-1.456-3.668-3.682-3.668-2.24 0-3.794 1.526-3.794 3.948 0 2.436 1.61 3.976 3.794 3.976 1.904 0 3.136-1.092 3.528-2.492z" fill="#000"/><rect x="174" y="1" width="19" height="19" rx="9.5" fill="#3F9AE0"/><path d="M212.322 15h1.274V5.242h-1.274v4.284h-4.97V5.242h-1.274V15h1.274v-4.424h4.97V15zm3.436 0h1.274V7.328h-1.274V15zm.658-8.918c.462 0 .84-.378.84-.868a.849.849 0 00-.84-.868.855.855 0 00-.868.868c0 .49.378.868.868.868zm4.061 4.746c0-1.778.924-2.324 2.142-2.324h.336V7.188c-1.218 0-2.044.532-2.478 1.386V7.328h-1.274V15h1.274v-4.172zm7.211-2.548c1.316 0 2.436.826 2.422 2.324h-4.844c.14-1.498 1.176-2.324 2.422-2.324zm3.584 4.354H229.9c-.28.826-1.008 1.414-2.156 1.414-1.302 0-2.394-.854-2.492-2.408h6.132c.028-.266.042-.49.042-.77 0-2.1-1.456-3.668-3.682-3.668-2.24 0-3.794 1.526-3.794 3.948 0 2.436 1.61 3.976 3.794 3.976 1.904 0 3.136-1.092 3.528-2.492z" fill="#000"/></svg>