<svg width="28" height="28" fill="none" xmlns="http://www.w3.org/2000/svg"><g clip-path="url(#clip0_1_530)"><path d="M23.795 12.604a3.73 3.73 0 00-1.388.254V5.59h-7.254c.157-.433.239-.91.239-1.403A4.185 4.185 0 0011.205 0 4.185 4.185 0 007.02 4.187c0 .492.082.962.238 1.403H.011v8.11a4.16 4.16 0 012.799-1.09 4.185 4.185 0 014.186 4.19 4.185 4.185 0 01-4.186 4.186 4.16 4.16 0 01-2.799-1.09V28h22.403v-7.269c.433.164.896.254 1.388.254A4.18 4.18 0 0027.99 16.8a4.188 4.188 0 00-4.194-4.194z" fill="#fff"/></g><defs><clipPath id="clip0_1_530"><path fill="#fff" d="M0 0h28v28H0z"/></clipPath></defs></svg>