<svg width="28" height="28" fill="none" xmlns="http://www.w3.org/2000/svg"><path d="M10.453 25.668C11.06 27.036 12.409 28 14 28c1.591 0 2.94-.964 3.548-2.332-1.122.055-2.29.092-3.548.092a71.84 71.84 0 01-3.548-.092zm15.9-5.928c-1.476-1.861-3.954-5.52-3.954-9.1 0-3.55-2.28-6.742-5.6-7.916A2.803 2.803 0 0014.001 0a2.802 2.802 0 00-2.8 2.724c-3.32 1.174-5.6 4.367-5.6 7.916 0 3.58-2.477 7.238-3.954 9.1a2.377 2.377 0 00-.406 2.196 2.312 2.312 0 001.552 1.523c1.295.383 3.417.813 6.654 1.032A67.71 67.71 0 0014 24.64c1.645 0 3.151-.055 4.553-.149 3.237-.22 5.359-.65 6.655-1.032a2.31 2.31 0 001.55-1.523 2.38 2.38 0 00-.406-2.196z" fill="#3E4954"/></svg>