<svg width="28" height="28" fill="none" xmlns="http://www.w3.org/2000/svg"><g clip-path="url(#clip0_1_549)" fill="#fff"><path d="M22.568 26.52c.24 0 .477.091.657.266a4.386 4.386 0 004.326 1.019 8.381 8.381 0 01-.35-6.422c.925-2.643 1.157-5.293.104-7.95a10.195 10.195 0 00-4.965-5.379c.138.74.208 1.495.208 2.258 0 3.236-1.244 6.28-3.504 8.57a12.158 12.158 0 01-8.53 3.628c-.601.01-1.2-.026-1.793-.104a10.378 10.378 0 008.83 5.21 10.234 10.234 0 004.61-1.003.943.943 0 01.407-.093z"/><path d="M10.541.002C4.792-.112.013 4.54 0 10.286a10.23 10.23 0 00.836 4.104 8.38 8.38 0 01-.35 6.421 4.386 4.386 0 004.327-1.019.946.946 0 011.064-.173 10.221 10.221 0 004.609 1.003c5.704-.085 10.172-4.613 10.172-10.31 0-5.573-4.539-10.197-10.117-10.31zm-5.722 11.85a1.494 1.494 0 01-1.496-1.493c0-.825.67-1.493 1.496-1.493a1.494 1.494 0 110 2.986zm5.51 0a1.494 1.494 0 01-1.496-1.493c0-.825.67-1.493 1.496-1.493a1.494 1.494 0 110 2.986zm5.51 0a1.494 1.494 0 01-1.496-1.493 1.494 1.494 0 012.991 0c0 .824-.67 1.493-1.496 1.493z"/></g><defs><clipPath id="clip0_1_549"><path fill="#fff" d="M0 0h28v28H0z"/></clipPath></defs></svg>