<svg width="24" height="24" fill="none" xmlns="http://www.w3.org/2000/svg"><path d="M6 7.5H3c-.827 0-1.5-.673-1.5-1.5V3c0-.827.673-1.5 1.5-1.5h3c.827 0 1.5.673 1.5 1.5v3c0 .827-.673 1.5-1.5 1.5zM3 3v3h3.001L6 3H3zm19.5 1.5a.75.75 0 00-.75-.75h-12a.75.75 0 100 1.5h12a.75.75 0 00.75-.75zM6 15H3c-.827 0-1.5-.673-1.5-1.5v-3C1.5 9.673 2.173 9 3 9h3c.827 0 1.5.673 1.5 1.5v3c0 .827-.673 1.5-1.5 1.5zm-3-4.5v3h3.001L6 10.5H3zM22.5 12a.75.75 0 00-.75-.75h-12a.75.75 0 100 1.5h12a.75.75 0 00.75-.75zM6 22.5H3c-.827 0-1.5-.673-1.5-1.5v-3c0-.827.673-1.5 1.5-1.5h3c.827 0 1.5.673 1.5 1.5v3c0 .827-.673 1.5-1.5 1.5zM3 18v3h3.001L6 18H3zm19.5 1.5a.75.75 0 00-.75-.75h-12a.75.75 0 100 1.5h12a.75.75 0 00.75-.75z" fill="#272643"/></svg>