<svg width="28" height="28" fill="none" xmlns="http://www.w3.org/2000/svg"><g clip-path="url(#clip0_1_522)" fill="#fff"><path d="M15.755 24.496c-6.764 0-12.246-5.482-12.246-12.245C3.509 5.488 8.99.005 15.754.005 22.517.005 28 5.488 28 12.251c0 6.763-5.483 12.245-12.245 12.245zm0-20.992a8.747 8.747 0 100 17.493 8.747 8.747 0 000-17.493z"/><path d="M1.76 27.995a1.749 1.749 0 01-1.253-2.981l.01-.01 6.578-6.578a1.788 1.788 0 112.484 2.571l-6.577 6.49a1.75 1.75 0 01-1.242.508z"/></g><defs><clipPath id="clip0_1_522"><path fill="#fff" d="M0 0h28v28H0z"/></clipPath></defs></svg>