<svg width="111" height="175" fill="none" xmlns="http://www.w3.org/2000/svg"><circle cx="55.5" cy="55.5" r="45.5" stroke="#EFEFEF" stroke-width="20" stroke-linecap="round"/><path d="M55.5 10a45.5 45.5 0 0142.843 60.822L55.5 55.5V10z" stroke="#272643" stroke-width="20" stroke-linecap="round"/><g filter="url(#filter0_d_9_4549)"><rect x="16" y="16" width="79" height="79" rx="39.5" fill="#fff"/></g><path d="M38.1 52.26h2.74c.1-.92.68-1.8 2.04-1.8 1.28 0 1.98.68 1.98 1.82 0 1.44-1.2 1.9-2.84 1.9h-.58v2.3h.58c2.08 0 3.12.6 3.12 2.24 0 1.16-.72 2.04-2.12 2.04-1.5 0-2.34-.9-2.4-2.16H37.9c.12 3.06 2.3 4.5 5.18 4.5 3.06 0 4.74-1.76 4.74-4.14 0-1.98-.98-3.18-2.46-3.64v-.08c1.06-.36 2.2-1.48 2.2-3.3 0-2.16-1.6-3.86-4.6-3.86-2.8 0-4.72 1.48-4.86 4.18zM51.633 63h2.88V48.42h-4.82V51h1.94v12zm5.326-11c0 2.1 1.36 3.26 3.18 3.26s3.18-1.16 3.18-3.26c0-2.08-1.36-3.24-3.18-3.24s-3.18 1.16-3.18 3.24zm3.16-1.56c.7 0 1.14.46 1.14 1.56s-.44 1.58-1.14 1.58c-.68 0-1.1-.48-1.1-1.58s.42-1.56 1.1-1.56zm-.9 12.56h2.72l7.86-14h-2.74l-7.84 14zm6.52-3.02c0 2.12 1.36 3.26 3.18 3.26 1.8 0 3.14-1.14 3.14-3.26 0-2.1-1.34-3.24-3.14-3.24-1.82 0-3.18 1.14-3.18 3.24zm3.16-1.56c.68 0 1.12.46 1.12 1.56 0 1.12-.44 1.58-1.12 1.58-.7 0-1.14-.46-1.14-1.58 0-1.1.44-1.56 1.14-1.56z" fill="#232323"/><path d="M20.867 130.49H16.78V143h4.086c4.014 0 6.642-2.358 6.642-6.21 0-3.87-2.628-6.3-6.642-6.3zm-2.034 10.836v-9.162h2.034c2.952 0 4.536 1.764 4.536 4.626 0 2.844-1.584 4.536-4.536 4.536h-2.034zm14.885-6.678c1.53 0 2.736.972 2.772 2.502H31c.216-1.566 1.332-2.502 2.718-2.502zm4.644 5.4h-2.214c-.378.774-1.08 1.386-2.34 1.386-1.512 0-2.682-.99-2.826-2.628h7.578a6.33 6.33 0 00.072-1.008c0-2.916-1.998-4.878-4.824-4.878-2.934 0-4.95 1.998-4.95 5.112s2.106 5.13 4.95 5.13c2.43 0 3.996-1.386 4.554-3.114zm9.688.18c-.108-3.582-5.706-2.466-5.706-4.464 0-.666.576-1.116 1.674-1.116 1.116 0 1.782.594 1.854 1.458h2.052c-.108-1.98-1.584-3.186-3.834-3.186-2.34 0-3.816 1.278-3.816 2.862 0 3.636 5.76 2.52 5.76 4.464 0 .684-.63 1.188-1.818 1.188-1.134 0-1.908-.666-1.98-1.476h-2.124c.09 1.8 1.764 3.204 4.14 3.204 2.34 0 3.798-1.26 3.798-2.934zM50.267 143h2.052v-9.918h-2.052V143zm1.044-11.232c.72 0 1.296-.576 1.296-1.314 0-.738-.576-1.314-1.296-1.314-.738 0-1.314.576-1.314 1.314 0 .738.576 1.314 1.314 1.314zm3.018 6.228c0 3.06 2.07 5.166 4.68 5.166 1.62 0 2.808-.81 3.438-1.656v1.656c0 1.98-1.188 2.952-2.772 2.952-1.422 0-2.52-.702-2.826-1.728h-2.034c.252 2.196 2.214 3.51 4.86 3.51 3.096 0 4.842-2.034 4.842-4.734v-10.08h-2.07v1.44c-.612-.846-1.818-1.602-3.438-1.602-2.61 0-4.68 2.016-4.68 5.076zm8.118.036c0 2.142-1.458 3.348-3.006 3.348-1.53 0-3.006-1.242-3.006-3.384s1.476-3.294 3.006-3.294c1.548 0 3.006 1.206 3.006 3.33zM74.25 143h2.034v-5.85c0-2.772-1.746-4.23-4.068-4.23-1.188 0-2.286.486-2.952 1.296v-1.134h-2.052V143h2.052v-5.544c0-1.818.99-2.754 2.502-2.754 1.494 0 2.484.936 2.484 2.754V143zm8.828-8.352c1.53 0 2.736.972 2.772 2.502h-5.49c.216-1.566 1.332-2.502 2.718-2.502zm4.644 5.4h-2.214c-.378.774-1.08 1.386-2.34 1.386-1.512 0-2.682-.99-2.826-2.628h7.578a6.33 6.33 0 00.072-1.008c0-2.916-1.998-4.878-4.824-4.878-2.934 0-4.95 1.998-4.95 5.112s2.106 5.13 4.95 5.13c2.43 0 3.996-1.386 4.554-3.114zm4.341-2.268c0-2.106.936-2.736 2.448-2.736h.522v-2.124c-1.404 0-2.394.612-2.97 1.602v-1.44h-2.052V143h2.052v-5.22z" fill="#000"/><path d="M8.295 169h1.288v-10.122H6.951v1.162h1.344V169zm3.476-5.166c0 2.94.728 5.166 3.528 5.166 2.786 0 3.514-2.226 3.514-5.166 0-2.898-.728-5.11-3.514-5.11-2.8 0-3.528 2.212-3.528 5.11zm5.782 0c0 2.184-.266 4.004-2.254 4.004-2.002 0-2.268-1.82-2.268-4.004 0-2.1.266-3.948 2.268-3.948 1.988 0 2.254 1.848 2.254 3.948zm2.113 7.168h.854l1.568-3.766h-1.4l-1.022 3.766zm4.036-12.138v5.712h1.204c.336-.798 1.078-1.33 2.1-1.33 1.47 0 2.212.84 2.212 2.282 0 1.386-.686 2.422-2.226 2.422-1.19 0-2.016-.63-2.254-1.694h-1.246c.252 1.638 1.47 2.772 3.486 2.772 2.366 0 3.458-1.568 3.458-3.528 0-1.568-.784-3.346-3.248-3.346-.994 0-1.89.448-2.31 1.022v-3.192h4.914v-1.12h-6.09zm8.273 10.024h6.734v-1.064h-4.816c1.806-1.47 4.522-3.612 4.522-6.132 0-1.876-1.232-2.996-3.136-2.996-1.82 0-3.178 1.12-3.262 3.276h1.232c.056-1.274.728-2.184 2.044-2.184 1.372 0 1.862.84 1.862 1.96 0 2.072-2.52 4.088-5.18 6.23v.91zm13.078.112h1.26v-2.254h1.4v-1.106h-1.4v-6.664h-1.526l-4.913 6.804v.966h5.18V169zm-3.71-3.36l3.766-5.334v5.334h-3.766zm15.24 2.016l-3.066-8.414h-1.358L55.84 169h1.47l3.682-9.758h-1.344l-3.066 8.414zm5.33-2.52c0 2.38 1.583 3.99 3.627 3.99 1.413 0 2.407-.728 2.87-1.554V169h1.288v-7.672H68.41v1.4c-.448-.798-1.428-1.526-2.856-1.526-2.059 0-3.64 1.54-3.64 3.934zm6.496.014c0 1.806-1.204 2.856-2.604 2.856-1.4 0-2.59-1.064-2.59-2.87s1.19-2.828 2.59-2.828 2.604 1.064 2.604 2.842zm2.965 0c0 2.436 1.555 3.976 3.739 3.976 1.903 0 3.15-1.064 3.541-2.59h-1.371c-.28.966-1.037 1.512-2.17 1.512-1.4 0-2.436-.994-2.436-2.898 0-1.876 1.035-2.87 2.435-2.87 1.135 0 1.904.588 2.17 1.512h1.373c-.392-1.61-1.639-2.59-3.543-2.59-2.183 0-3.737 1.54-3.737 3.948zm8.504-.014c0 2.38 1.582 3.99 3.626 3.99 1.414 0 2.408-.728 2.87-1.554V169h1.288v-7.672h-1.288v1.4c-.448-.798-1.428-1.526-2.856-1.526-2.058 0-3.64 1.54-3.64 3.934zm6.496.014c0 1.806-1.204 2.856-2.604 2.856-1.4 0-2.59-1.064-2.59-2.87s1.19-2.828 2.59-2.828 2.604 1.064 2.604 2.842zM95.43 169h1.26v-4.522c0-2.198-1.358-3.29-3.136-3.29-1.036 0-1.96.434-2.464 1.232v-1.092h-1.274V169h1.274v-4.242c0-1.652.896-2.464 2.198-2.464 1.288 0 2.142.798 2.142 2.366V169zm6.253-1.456l-2.408-6.216H97.86l3.094 7.588-1.512 3.696h1.316l4.62-11.284h-1.316l-2.38 6.216z" fill="#000" fill-opacity=".6"/><defs><filter id="filter0_d_9_4549" x="6" y="10" width="99" height="99" filterUnits="userSpaceOnUse" color-interpolation-filters="sRGB"><feFlood flood-opacity="0" result="BackgroundImageFix"/><feColorMatrix in="SourceAlpha" values="0 0 0 0 0 0 0 0 0 0 0 0 0 0 0 0 0 0 127 0" result="hardAlpha"/><feOffset dy="4"/><feGaussianBlur stdDeviation="5"/><feColorMatrix values="0 0 0 0 0 0 0 0 0 0 0 0 0 0 0 0 0 0 0.13 0"/><feBlend in2="BackgroundImageFix" result="effect1_dropShadow_9_4549"/><feBlend in="SourceGraphic" in2="effect1_dropShadow_9_4549" result="shape"/></filter></defs></svg>