<svg width="116" height="175" fill="none" xmlns="http://www.w3.org/2000/svg"><circle cx="58.5" cy="55.5" r="45.5" stroke="#EFEFEF" stroke-width="20" stroke-linecap="round"/><path d="M58.5 10a45.5 45.5 0 11-32.174 77.673L58.5 55.5V10z" stroke="#272643" stroke-width="20" stroke-linecap="round"/><g filter="url(#filter0_d_9_4567)"><rect x="19" y="16" width="79" height="79" rx="39.5" fill="#fff"/></g><path d="M51.22 52.06c-.22-2.06-1.62-3.98-4.6-3.98-3.7 0-5.24 2.64-5.24 7.4 0 4.52 1.08 7.56 5.4 7.56 3.12 0 4.86-2.06 4.86-4.88 0-3.04-1.82-4.76-4.42-4.76-1.42 0-2.74.6-3.4 1.7.04-3.36.88-4.72 2.7-4.72 1.26 0 1.84.6 2.1 1.68h2.6zm-4.64 3.64c1.62 0 2.4 1.02 2.4 2.52s-.9 2.44-2.34 2.44c-1.64 0-2.56-.98-2.56-2.54 0-1.66 1.2-2.42 2.5-2.42zm7.113 7.1h9.88v-2.32h-5.9c2.32-1.96 5.58-4.6 5.58-7.98 0-2.54-1.58-4.4-4.72-4.4-2.62 0-4.76 1.54-4.86 4.88h2.72c.02-1.54.76-2.5 2.1-2.5 1.38 0 1.96.88 1.96 2.18 0 2.68-3.46 5.26-6.76 8.06v2.08zM65.017 52c0 2.1 1.36 3.26 3.18 3.26s3.18-1.16 3.18-3.26c0-2.08-1.36-3.24-3.18-3.24s-3.18 1.16-3.18 3.24zm3.16-1.56c.7 0 1.14.46 1.14 1.56s-.44 1.58-1.14 1.58c-.68 0-1.1-.48-1.1-1.58s.42-1.56 1.1-1.56zm-.9 12.56h2.72l7.86-14h-2.74l-7.84 14zm6.52-3.02c0 2.12 1.36 3.26 3.18 3.26 1.8 0 3.14-1.14 3.14-3.26 0-2.1-1.34-3.24-3.14-3.24-1.82 0-3.18 1.14-3.18 3.24zm3.16-1.56c.68 0 1.12.46 1.12 1.56 0 1.12-.44 1.58-1.12 1.58-.7 0-1.14-.46-1.14-1.58 0-1.1.44-1.56 1.14-1.56z" fill="#232323"/><path d="M3.49 136.25v-4.086h2.27c1.602 0 2.322.756 2.322 2.052 0 1.26-.72 2.034-2.322 2.034H3.49zm6.697-2.034c0-2.034-1.458-3.726-4.428-3.726h-4.32V143H3.49v-5.076h2.268c3.258 0 4.428-1.926 4.428-3.708zm4.009 3.564c0-2.106.936-2.736 2.448-2.736h.522v-2.124c-1.404 0-2.394.612-2.97 1.602v-1.44h-2.052V143h2.052v-5.22zm14.306.252c0-3.114-2.232-5.112-5.058-5.112-2.826 0-5.058 1.998-5.058 5.112s2.142 5.13 4.968 5.13c2.844 0 5.148-2.016 5.148-5.13zm-8.028 0c0-2.25 1.386-3.33 2.934-3.33 1.53 0 2.988 1.08 2.988 3.33s-1.512 3.348-3.042 3.348c-1.548 0-2.88-1.098-2.88-3.348zm9.373-.036c0 3.06 2.07 5.166 4.68 5.166 1.62 0 2.808-.81 3.438-1.656v1.656c0 1.98-1.188 2.952-2.772 2.952-1.422 0-2.52-.702-2.826-1.728h-2.034c.252 2.196 2.214 3.51 4.86 3.51 3.096 0 4.842-2.034 4.842-4.734v-10.08h-2.07v1.44c-.612-.846-1.818-1.602-3.438-1.602-2.61 0-4.68 2.016-4.68 5.076zm8.118.036c0 2.142-1.458 3.348-3.006 3.348-1.53 0-3.006-1.242-3.006-3.384s1.476-3.294 3.006-3.294c1.548 0 3.006 1.206 3.006 3.33zm6.817-.252c0-2.106.936-2.736 2.448-2.736h.522v-2.124c-1.404 0-2.394.612-2.97 1.602v-1.44H42.73V143h2.052v-5.22zm4.172.216c0 3.06 2.07 5.166 4.644 5.166 1.656 0 2.844-.792 3.474-1.638V143h2.07v-9.918h-2.07v1.44c-.612-.81-1.764-1.602-3.438-1.602-2.61 0-4.68 2.016-4.68 5.076zm8.118.036c0 2.142-1.458 3.348-3.006 3.348-1.53 0-3.006-1.242-3.006-3.384s1.476-3.294 3.006-3.294c1.548 0 3.006 1.206 3.006 3.33zM75.895 143h2.034v-5.85c0-2.772-1.764-4.23-4.086-4.23-1.44 0-2.844.756-3.456 1.962-.684-1.296-1.998-1.962-3.564-1.962-1.188 0-2.268.486-2.934 1.296v-1.134h-2.052V143h2.052v-5.544c0-1.818.99-2.754 2.502-2.754 1.494 0 2.484.936 2.484 2.754V143h2.034v-5.544c0-1.818.99-2.754 2.502-2.754 1.494 0 2.484.936 2.484 2.754V143zm18.703 0h2.034v-5.85c0-2.772-1.764-4.23-4.086-4.23-1.44 0-2.844.756-3.456 1.962-.684-1.296-1.998-1.962-3.564-1.962-1.188 0-2.268.486-2.934 1.296v-1.134H80.54V143h2.052v-5.544c0-1.818.99-2.754 2.502-2.754 1.494 0 2.484.936 2.484 2.754V143h2.034v-5.544c0-1.818.99-2.754 2.502-2.754 1.494 0 2.484.936 2.484 2.754V143zm8.822-8.352c1.53 0 2.736.972 2.772 2.502h-5.49c.216-1.566 1.332-2.502 2.718-2.502zm4.644 5.4h-2.214c-.378.774-1.08 1.386-2.34 1.386-1.512 0-2.682-.99-2.826-2.628h7.578a6.33 6.33 0 00.072-1.008c0-2.916-1.998-4.878-4.824-4.878-2.934 0-4.95 1.998-4.95 5.112s2.106 5.13 4.95 5.13c2.43 0 3.996-1.386 4.554-3.114zm4.341-2.268c0-2.106.936-2.736 2.448-2.736h.522v-2.124c-1.404 0-2.394.612-2.97 1.602v-1.44h-2.052V143h2.052v-5.22z" fill="#000"/><path d="M8.637 166.284c.14 1.484 1.12 2.73 3.136 2.73 2.66 0 3.43-1.89 3.43-5.264 0-3.136-.798-5.068-3.542-5.068-2.184 0-3.332 1.4-3.332 3.332 0 2.142 1.386 3.304 3.248 3.304 1.092 0 2.1-.49 2.506-1.344.042 2.968-.756 3.976-2.24 3.976-1.176 0-1.848-.616-2.03-1.666H8.637zm3.15-2.044c-1.512 0-2.24-.952-2.24-2.254 0-1.344.826-2.24 2.142-2.24 1.456 0 2.24.966 2.24 2.338 0 1.358-.924 2.156-2.142 2.156zm4.31 6.762h.854l1.568-3.766h-1.4l-1.022 3.766zm10.49-9.716c-.169-1.414-1.149-2.618-3.08-2.618-2.563 0-3.585 1.96-3.585 5.138 0 3.066.714 5.222 3.71 5.222 2.212 0 3.304-1.512 3.304-3.36 0-2.128-1.274-3.374-3.164-3.374-1.204 0-2.31.56-2.744 1.554-.014-3.01.854-4.116 2.464-4.116 1.148 0 1.722.574 1.918 1.554h1.176zm-3.08 2.086c1.455 0 2.197.91 2.197 2.338 0 1.372-.826 2.254-2.142 2.254-1.596 0-2.38-1.05-2.38-2.394 0-1.512 1.162-2.198 2.324-2.198zm11.966-2.086c-.168-1.414-1.148-2.618-3.08-2.618-2.562 0-3.584 1.96-3.584 5.138 0 3.066.714 5.222 3.71 5.222 2.212 0 3.304-1.512 3.304-3.36 0-2.128-1.274-3.374-3.164-3.374-1.204 0-2.31.56-2.744 1.554-.014-3.01.854-4.116 2.464-4.116 1.148 0 1.722.574 1.918 1.554h1.176zm-3.08 2.086c1.456 0 2.198.91 2.198 2.338 0 1.372-.826 2.254-2.142 2.254-1.596 0-2.38-1.05-2.38-2.394 0-1.512 1.162-2.198 2.324-2.198zm4.995 5.516h6.734v-1.064h-4.816c1.806-1.47 4.522-3.612 4.522-6.132 0-1.876-1.232-2.996-3.136-2.996-1.82 0-3.178 1.12-3.262 3.276h1.232c.056-1.274.728-2.184 2.044-2.184 1.372 0 1.862.84 1.862 1.96 0 2.072-2.52 4.088-5.18 6.23v.91zm15.803-1.232l-3.066-8.414h-1.358L52.449 169h1.47l3.682-9.758h-1.344l-3.066 8.414zm5.33-2.52c0 2.38 1.583 3.99 3.627 3.99 1.414 0 2.408-.728 2.87-1.554V169h1.288v-7.672h-1.288v1.4c-.448-.798-1.428-1.526-2.856-1.526-2.058 0-3.64 1.54-3.64 3.934zm6.497.014c0 1.806-1.204 2.856-2.604 2.856-1.4 0-2.59-1.064-2.59-2.87s1.19-2.828 2.59-2.828 2.604 1.064 2.604 2.842zm2.965 0c0 2.436 1.554 3.976 3.738 3.976 1.904 0 3.15-1.064 3.542-2.59H73.89c-.28.966-1.036 1.512-2.17 1.512-1.4 0-2.436-.994-2.436-2.898 0-1.876 1.036-2.87 2.436-2.87 1.134 0 1.904.588 2.17 1.512h1.372c-.392-1.61-1.638-2.59-3.542-2.59-2.184 0-3.738 1.54-3.738 3.948zm8.504-.014c0 2.38 1.582 3.99 3.626 3.99 1.414 0 2.408-.728 2.87-1.554V169h1.288v-7.672h-1.288v1.4c-.448-.798-1.428-1.526-2.856-1.526-2.058 0-3.64 1.54-3.64 3.934zm6.496.014c0 1.806-1.204 2.856-2.604 2.856-1.4 0-2.59-1.064-2.59-2.87s1.19-2.828 2.59-2.828 2.604 1.064 2.604 2.842zm9.055 3.85h1.26v-4.522c0-2.198-1.358-3.29-3.136-3.29-1.036 0-1.96.434-2.464 1.232v-1.092h-1.274V169h1.274v-4.242c0-1.652.896-2.464 2.198-2.464 1.288 0 2.142.798 2.142 2.366V169zm2.865-3.85c0 2.436 1.554 3.976 3.738 3.976 1.904 0 3.15-1.064 3.542-2.59h-1.372c-.28.966-1.036 1.512-2.17 1.512-1.4 0-2.436-.994-2.436-2.898 0-1.876 1.036-2.87 2.436-2.87 1.134 0 1.904.588 2.17 1.512h1.372c-.392-1.61-1.638-2.59-3.542-2.59-2.184 0-3.738 1.54-3.738 3.948zm11.892 2.394l-2.408-6.216h-1.414l3.094 7.588-1.512 3.696h1.316l4.62-11.284h-1.316l-2.38 6.216z" fill="#000" fill-opacity=".6"/><defs><filter id="filter0_d_9_4567" x="9" y="10" width="99" height="99" filterUnits="userSpaceOnUse" color-interpolation-filters="sRGB"><feFlood flood-opacity="0" result="BackgroundImageFix"/><feColorMatrix in="SourceAlpha" values="0 0 0 0 0 0 0 0 0 0 0 0 0 0 0 0 0 0 127 0" result="hardAlpha"/><feOffset dy="4"/><feGaussianBlur stdDeviation="5"/><feColorMatrix values="0 0 0 0 0 0 0 0 0 0 0 0 0 0 0 0 0 0 0.13 0"/><feBlend in2="BackgroundImageFix" result="effect1_dropShadow_9_4567"/><feBlend in="SourceGraphic" in2="effect1_dropShadow_9_4567" result="shape"/></filter></defs></svg>