<svg width="111" height="175" fill="none" xmlns="http://www.w3.org/2000/svg"><circle cx="55.5" cy="55.5" r="45.5" stroke="#EFEFEF" stroke-width="20" stroke-linecap="round"/><path d="M55.5 10a45.5 45.5 0 11-39.527 68.035L55.5 55.5V10z" stroke="#272643" stroke-width="20" stroke-linecap="round"/><g filter="url(#filter0_d_9_4540)"><rect x="16" y="16" width="79" height="79" rx="39.5" fill="#fff"/></g><path d="M48.22 52.06c-.22-2.06-1.62-3.98-4.6-3.98-3.7 0-5.24 2.64-5.24 7.4 0 4.52 1.08 7.56 5.4 7.56 3.12 0 4.86-2.06 4.86-4.88 0-3.04-1.82-4.76-4.42-4.76-1.42 0-2.74.6-3.4 1.7.04-3.36.88-4.72 2.7-4.72 1.26 0 1.84.6 2.1 1.68h2.6zm-4.64 3.64c1.62 0 2.4 1.02 2.4 2.52s-.9 2.44-2.34 2.44c-1.64 0-2.56-.98-2.56-2.54 0-1.66 1.2-2.42 2.5-2.42zm17.433-3.64c-.22-2.06-1.62-3.98-4.6-3.98-3.7 0-5.24 2.64-5.24 7.4 0 4.52 1.08 7.56 5.4 7.56 3.12 0 4.86-2.06 4.86-4.88 0-3.04-1.82-4.76-4.42-4.76-1.42 0-2.74.6-3.4 1.7.04-3.36.88-4.72 2.7-4.72 1.26 0 1.84.6 2.1 1.68h2.6zm-4.64 3.64c1.62 0 2.4 1.02 2.4 2.52s-.9 2.44-2.34 2.44c-1.64 0-2.56-.98-2.56-2.54 0-1.66 1.2-2.42 2.5-2.42zm6.953-3.7c0 2.1 1.36 3.26 3.18 3.26s3.18-1.16 3.18-3.26c0-2.08-1.36-3.24-3.18-3.24s-3.18 1.16-3.18 3.24zm3.16-1.56c.7 0 1.14.46 1.14 1.56s-.44 1.58-1.14 1.58c-.68 0-1.1-.48-1.1-1.58s.42-1.56 1.1-1.56zm-.9 12.56h2.72l7.86-14h-2.74l-7.84 14zm6.52-3.02c0 2.12 1.36 3.26 3.18 3.26 1.8 0 3.14-1.14 3.14-3.26 0-2.1-1.34-3.24-3.14-3.24-1.82 0-3.18 1.14-3.18 3.24zm3.16-1.56c.68 0 1.12.46 1.12 1.56 0 1.12-.44 1.58-1.12 1.58-.7 0-1.14-.46-1.14-1.58 0-1.1.44-1.56 1.14-1.56z" fill="#232323"/><path d="M24.317 130.472h-6.912V143h6.912v-1.674h-4.86v-3.834h4.32v-1.674h-4.32v-3.672h4.86v-1.674zM33.882 143h2.034v-5.85c0-2.772-1.746-4.23-4.068-4.23-1.188 0-2.286.486-2.952 1.296v-1.134h-2.052V143h2.052v-5.544c0-1.818.99-2.754 2.502-2.754 1.494 0 2.484.936 2.484 2.754V143zm3.968-5.004c0 3.06 2.07 5.166 4.68 5.166 1.62 0 2.808-.81 3.438-1.656v1.656c0 1.98-1.188 2.952-2.772 2.952-1.422 0-2.52-.702-2.826-1.728h-2.034c.252 2.196 2.214 3.51 4.86 3.51 3.096 0 4.842-2.034 4.842-4.734v-10.08h-2.07v1.44c-.612-.846-1.818-1.602-3.438-1.602-2.61 0-4.68 2.016-4.68 5.076zm8.118.036c0 2.142-1.458 3.348-3.006 3.348-1.53 0-3.006-1.242-3.006-3.384s1.476-3.294 3.006-3.294c1.548 0 3.006 1.206 3.006 3.33zM50.733 143h2.052v-9.918h-2.052V143zm1.044-11.232c.72 0 1.296-.576 1.296-1.314 0-.738-.576-1.314-1.296-1.314-.738 0-1.314.576-1.314 1.314 0 .738.576 1.314 1.314 1.314zM62.517 143h2.034v-5.85c0-2.772-1.746-4.23-4.068-4.23-1.188 0-2.286.486-2.952 1.296v-1.134h-2.052V143h2.052v-5.544c0-1.818.99-2.754 2.502-2.754 1.494 0 2.484.936 2.484 2.754V143zm8.827-8.352c1.53 0 2.736.972 2.772 2.502h-5.49c.216-1.566 1.332-2.502 2.718-2.502zm4.644 5.4h-2.214c-.378.774-1.08 1.386-2.34 1.386-1.512 0-2.682-.99-2.826-2.628h7.578a6.33 6.33 0 00.072-1.008c0-2.916-1.998-4.878-4.824-4.878-2.934 0-4.95 1.998-4.95 5.112s2.106 5.13 4.95 5.13c2.43 0 3.996-1.386 4.554-3.114zm6.466-5.4c1.53 0 2.736.972 2.772 2.502h-5.49c.216-1.566 1.332-2.502 2.718-2.502zm4.644 5.4h-2.214c-.378.774-1.08 1.386-2.34 1.386-1.512 0-2.682-.99-2.826-2.628h7.578a6.33 6.33 0 00.072-1.008c0-2.916-1.998-4.878-4.824-4.878-2.934 0-4.95 1.998-4.95 5.112s2.106 5.13 4.95 5.13c2.43 0 3.996-1.386 4.554-3.114zm4.341-2.268c0-2.106.936-2.736 2.448-2.736h.522v-2.124c-1.404 0-2.394.612-2.97 1.602v-1.44h-2.052V143h2.052v-5.22z" fill="#000"/><path d="M5.279 158.864v5.712h1.204c.336-.798 1.078-1.33 2.1-1.33 1.47 0 2.212.84 2.212 2.282 0 1.386-.686 2.422-2.226 2.422-1.19 0-2.016-.63-2.254-1.694H5.069c.252 1.638 1.47 2.772 3.486 2.772 2.366 0 3.458-1.568 3.458-3.528 0-1.568-.784-3.346-3.248-3.346-.994 0-1.89.448-2.31 1.022v-3.192h4.914v-1.12h-6.09zm7.53 12.138h.855l1.568-3.766h-1.4l-1.022 3.766zm3.672-7.168c0 2.94.728 5.166 3.528 5.166 2.786 0 3.514-2.226 3.514-5.166 0-2.898-.728-5.11-3.514-5.11-2.8 0-3.528 2.212-3.528 5.11zm5.782 0c0 2.184-.266 4.004-2.254 4.004-2.002 0-2.268-1.82-2.268-4.004 0-2.1.266-3.948 2.268-3.948 1.988 0 2.254 1.848 2.254 3.948zm3.373-4.97v5.712h1.204c.336-.798 1.078-1.33 2.1-1.33 1.47 0 2.212.84 2.212 2.282 0 1.386-.686 2.422-2.226 2.422-1.19 0-2.016-.63-2.254-1.694h-1.246c.252 1.638 1.47 2.772 3.486 2.772 2.366 0 3.458-1.568 3.458-3.528 0-1.568-.784-3.346-3.248-3.346-.994 0-1.89.448-2.31 1.022v-3.192h4.914v-1.12h-6.09zm8.427 4.97c0 2.94.728 5.166 3.528 5.166 2.786 0 3.514-2.226 3.514-5.166 0-2.898-.728-5.11-3.514-5.11-2.8 0-3.528 2.212-3.528 5.11zm5.782 0c0 2.184-.266 4.004-2.254 4.004-2.002 0-2.268-1.82-2.268-4.004 0-2.1.266-3.948 2.268-3.948 1.988 0 2.254 1.848 2.254 3.948zm10.606 3.822l-3.066-8.414h-1.358L49.709 169h1.47l3.682-9.758h-1.344l-3.066 8.414zm5.33-2.52c0 2.38 1.583 3.99 3.627 3.99 1.414 0 2.408-.728 2.87-1.554V169h1.288v-7.672h-1.288v1.4c-.448-.798-1.428-1.526-2.856-1.526-2.058 0-3.64 1.54-3.64 3.934zm6.497.014c0 1.806-1.204 2.856-2.604 2.856-1.4 0-2.59-1.064-2.59-2.87s1.19-2.828 2.59-2.828 2.604 1.064 2.604 2.842zm2.965 0c0 2.436 1.554 3.976 3.738 3.976 1.904 0 3.15-1.064 3.542-2.59H71.15c-.28.966-1.036 1.512-2.17 1.512-1.4 0-2.436-.994-2.436-2.898 0-1.876 1.036-2.87 2.436-2.87 1.134 0 1.904.588 2.17 1.512h1.372c-.392-1.61-1.638-2.59-3.542-2.59-2.184 0-3.738 1.54-3.738 3.948zm8.504-.014c0 2.38 1.582 3.99 3.626 3.99 1.413 0 2.407-.728 2.87-1.554V169h1.288v-7.672h-1.288v1.4c-.448-.798-1.428-1.526-2.856-1.526-2.058 0-3.64 1.54-3.64 3.934zm6.496.014c0 1.806-1.204 2.856-2.605 2.856-1.4 0-2.59-1.064-2.59-2.87s1.19-2.828 2.59-2.828 2.605 1.064 2.605 2.842zm9.055 3.85h1.26v-4.522c0-2.198-1.359-3.29-3.137-3.29-1.036 0-1.96.434-2.464 1.232v-1.092h-1.273V169h1.273v-4.242c0-1.652.897-2.464 2.199-2.464 1.287 0 2.141.798 2.141 2.366V169zm2.864-3.85c0 2.436 1.554 3.976 3.738 3.976 1.904 0 3.15-1.064 3.542-2.59h-1.371c-.28.966-1.037 1.512-2.17 1.512-1.4 0-2.436-.994-2.436-2.898 0-1.876 1.035-2.87 2.435-2.87 1.134 0 1.904.588 2.17 1.512h1.373c-.392-1.61-1.638-2.59-3.543-2.59-2.184 0-3.738 1.54-3.738 3.948zm11.892 2.394l-2.408-6.216h-1.414l3.094 7.588-1.512 3.696h1.316l4.62-11.284h-1.316l-2.38 6.216z" fill="#000" fill-opacity=".6"/><defs><filter id="filter0_d_9_4540" x="6" y="10" width="99" height="99" filterUnits="userSpaceOnUse" color-interpolation-filters="sRGB"><feFlood flood-opacity="0" result="BackgroundImageFix"/><feColorMatrix in="SourceAlpha" values="0 0 0 0 0 0 0 0 0 0 0 0 0 0 0 0 0 0 127 0" result="hardAlpha"/><feOffset dy="4"/><feGaussianBlur stdDeviation="5"/><feColorMatrix values="0 0 0 0 0 0 0 0 0 0 0 0 0 0 0 0 0 0 0.13 0"/><feBlend in2="BackgroundImageFix" result="effect1_dropShadow_9_4540"/><feBlend in="SourceGraphic" in2="effect1_dropShadow_9_4540" result="shape"/></filter></defs></svg>