<svg xmlns="http://www.w3.org/2000/svg" width="256" height="256"><g transform="matrix(2.81 0 0 2.81 1.407 1.407)" stroke-width="0" stroke-miterlimit="10" fill="none"><linearGradient id="a" gradientUnits="userSpaceOnUse" x1="45" y1="90" x2="45" y2="0"><stop offset="0%" stop-color="#ff3183"/><stop offset="100%" stop-color="#fd8ca7"/></linearGradient><path d="M90 63.718C90 78.233 78.233 90 63.718 90H26.282C11.767 90 0 78.233 0 63.718V26.282C0 11.767 11.767 0 26.282 0h37.436C78.233 0 90 11.767 90 26.282v37.436z" fill="url(#a)"/><path d="M77.306 31.6c-.157-3.46-.71-5.824-1.51-7.89a15.914 15.914 0 00-3.748-5.756 15.958 15.958 0 00-5.755-3.75c-2.067-.802-4.428-1.35-7.89-1.51-3.465-.157-4.574-.196-13.4-.196s-9.934.039-13.398.196c-3.465.16-5.826.708-7.893 1.512a15.925 15.925 0 00-5.758 3.748 15.925 15.925 0 00-3.748 5.758c-.8 2.067-1.35 4.431-1.51 7.89-.159 3.467-.195 4.574-.195 13.4 0 8.827.036 9.934.196 13.398.157 3.46.705 5.823 1.51 7.89a15.914 15.914 0 003.747 5.756 15.914 15.914 0 005.755 3.747c2.067.804 4.428 1.353 7.89 1.51 3.465.157 4.574.196 13.4.196s9.934-.037 13.398-.196c3.46-.157 5.823-.706 7.89-1.51a16.61 16.61 0 009.503-9.503c.804-2.067 1.353-4.43 1.51-7.89.157-3.467.196-4.574.196-13.399s-.034-9.934-.19-13.402zm-5.851 26.534c-.146 3.17-.675 4.89-1.118 6.036a10.754 10.754 0 01-6.167 6.167c-1.146.445-2.865.975-6.036 1.118-3.425.156-4.453.19-13.133.19s-9.707-.034-13.133-.19c-3.168-.146-4.89-.675-6.036-1.118a10.074 10.074 0 01-3.736-2.431 10.039 10.039 0 01-2.43-3.736c-.446-1.146-.976-2.865-1.118-6.036-.157-3.428-.19-4.453-.19-13.133s.03-9.707.187-13.133c.145-3.17.675-4.89 1.12-6.036a10.074 10.074 0 012.431-3.736 10.039 10.039 0 013.736-2.43c1.146-.446 2.866-.976 6.036-1.121 3.426-.154 4.453-.188 13.133-.188 8.677 0 9.705.034 13.133.19 3.17.146 4.89.676 6.036 1.118a10.074 10.074 0 013.736 2.431 10.039 10.039 0 012.431 3.736c.445 1.146.975 2.866 1.12 6.036.157 3.428.19 4.453.19 13.133s-.036 9.705-.192 13.133z" fill="#fff"/><path d="M44.998 28.311c-9.217 0-16.69 7.473-16.69 16.69s7.473 16.69 16.69 16.69c9.218 0 16.69-7.472 16.69-16.69s-7.472-16.69-16.69-16.69zm0 27.524c-5.982 0-10.833-4.851-10.833-10.834s4.85-10.833 10.833-10.833c5.983 0 10.834 4.85 10.834 10.833s-4.848 10.834-10.834 10.834zm21.25-28.185a3.9 3.9 0 01-7.797 0 3.9 3.9 0 017.797 0z" fill="#fff"/></g></svg>