<svg width="79" height="109" fill="none" xmlns="http://www.w3.org/2000/svg"><ellipse cx="39.881" cy="38.517" rx="29.05" ry="28.517" stroke="#F0F0F0" stroke-width="20" stroke-linecap="round"/><path d="M39.88 10a29.47 29.47 0 0114.543 3.83 28.789 28.789 0 0110.636 10.462 28.115 28.115 0 013.872 14.284 28.118 28.118 0 01-3.932 14.267 28.795 28.795 0 01-10.679 10.42 29.471 29.471 0 01-14.558 3.772 29.465 29.465 0 01-14.526-3.889 28.781 28.781 0 01-10.592-10.505l25.237-14.123V10z" stroke="#FF8E26" stroke-width="20" stroke-linecap="round"/><g filter="url(#filter0_d_8_2)"><rect x="13.385" y="12.507" width="52.992" height="52.021" rx="26.01" fill="#fff"/></g><path d="M32.965 34.678c-.107-.448-.293-.784-.56-1.008-.256-.224-.63-.337-1.12-.337-.736 0-1.28.3-1.632.897-.341.586-.517 1.546-.528 2.88.256-.427.63-.758 1.12-.992a3.528 3.528 0 011.6-.369c.694 0 1.307.15 1.84.448.533.3.95.736 1.248 1.313.299.565.448 1.248.448 2.047 0 .758-.154 1.435-.464 2.032a3.239 3.239 0 01-1.328 1.377c-.587.33-1.285.495-2.096.495-1.11 0-1.984-.245-2.624-.736-.63-.49-1.072-1.173-1.328-2.047-.245-.886-.368-1.974-.368-3.264 0-1.953.336-3.425 1.008-4.416.672-1.003 1.733-1.504 3.184-1.504 1.12 0 1.99.303 2.608.912.619.608.976 1.365 1.072 2.272h-2.08zm-1.632 2.912c-.565 0-1.04.165-1.424.495-.384.331-.576.811-.576 1.44 0 .63.176 1.126.528 1.489.363.362.87.543 1.52.543.576 0 1.03-.175 1.36-.528.342-.352.512-.826.512-1.424 0-.618-.165-1.109-.496-1.471-.32-.363-.794-.544-1.424-.544zM43.2 34.677c-.107-.447-.294-.783-.56-1.008-.257-.223-.63-.335-1.12-.335-.737 0-1.28.298-1.633.895-.34.587-.517 1.547-.528 2.88.256-.426.63-.757 1.12-.992a3.528 3.528 0 011.6-.367c.694 0 1.307.149 1.84.447.534.3.95.736 1.248 1.313.3.565.448 1.248.448 2.047 0 .758-.154 1.435-.464 2.032a3.238 3.238 0 01-1.328 1.377c-.586.33-1.285.495-2.096.495-1.109 0-1.983-.245-2.623-.736-.63-.49-1.072-1.173-1.328-2.047-.246-.886-.369-1.974-.369-3.264 0-1.953.337-3.425 1.009-4.416.672-1.003 1.733-1.504 3.184-1.504 1.12 0 1.989.303 2.608.912.618.608.976 1.365 1.072 2.272H43.2zm-1.633 2.913c-.565 0-1.04.165-1.423.495-.384.331-.576.811-.576 1.44 0 .63.175 1.126.528 1.489.362.362.869.543 1.52.543.575 0 1.029-.175 1.36-.528.34-.352.511-.826.511-1.424 0-.618-.165-1.109-.495-1.471-.32-.363-.795-.544-1.424-.544zm5.563-2.96c0-.811.235-1.446.704-1.905.48-.458 1.093-.688 1.84-.688.747 0 1.355.23 1.824.688.48.46.72 1.094.72 1.904 0 .822-.24 1.462-.72 1.92-.47.46-1.077.688-1.824.688-.747 0-1.36-.229-1.84-.688-.47-.458-.704-1.098-.704-1.92zm10.272-2.4l-6.288 11.2h-2.176l6.272-11.2h2.192zm-7.744 1.152c-.587 0-.88.416-.88 1.248 0 .842.293 1.264.88 1.264.288 0 .512-.102.672-.304.16-.214.24-.534.24-.96 0-.833-.304-1.248-.912-1.248zm4.496 7.632c0-.822.235-1.457.704-1.905.48-.458 1.093-.688 1.84-.688.747 0 1.35.23 1.808.688.47.448.704 1.083.704 1.904 0 .822-.235 1.462-.704 1.92-.459.46-1.061.688-1.808.688-.757 0-1.37-.229-1.84-.688-.47-.458-.704-1.098-.704-1.92zm2.528-1.248c-.608 0-.912.416-.912 1.248 0 .842.304 1.264.912 1.264.597 0 .896-.422.896-1.264 0-.833-.299-1.248-.896-1.248z" fill="#232323"/><path d="M7.887 93.242v7.21c0 .803-.247 1.447-.742 1.932-.495.476-1.148.714-1.96.714-.821 0-1.48-.243-1.974-.728-.495-.495-.742-1.167-.742-2.016h1.274c.01.476.13.863.364 1.162.243.299.602.448 1.078.448.476 0 .83-.14 1.064-.42.233-.289.35-.653.35-1.092v-7.21h1.288zm2.034 5.894c0-.784.159-1.47.476-2.058a3.458 3.458 0 011.302-1.386c.56-.327 1.18-.49 1.862-.49.672 0 1.255.145 1.75.434.495.29.863.653 1.106 1.092v-1.4h1.288V103h-1.288v-1.428c-.252.448-.63.821-1.134 1.12-.495.289-1.073.434-1.736.434a3.477 3.477 0 01-1.848-.504 3.532 3.532 0 01-1.302-1.414c-.317-.607-.476-1.297-.476-2.072zm6.496.014c0-.579-.117-1.083-.35-1.512a2.41 2.41 0 00-.952-.98 2.498 2.498 0 00-1.302-.35c-.476 0-.91.112-1.302.336-.392.224-.705.55-.938.98-.233.43-.35.933-.35 1.512 0 .588.117 1.101.35 1.54.233.429.546.761.938.994.392.224.826.336 1.302.336.476 0 .91-.112 1.302-.336.401-.233.719-.565.952-.994.233-.439.35-.947.35-1.526zm6.297 2.674l2.38-6.496h1.358L23.442 103h-1.484l-3.01-7.672h1.372l2.394 6.496zm4.516-2.688c0-.784.158-1.47.476-2.058a3.458 3.458 0 011.302-1.386c.56-.327 1.18-.49 1.862-.49.672 0 1.255.145 1.75.434.494.29.863.653 1.106 1.092v-1.4h1.288V103h-1.288v-1.428c-.252.448-.63.821-1.134 1.12-.495.289-1.074.434-1.736.434a3.477 3.477 0 01-1.848-.504 3.532 3.532 0 01-1.302-1.414c-.318-.607-.476-1.297-.476-2.072zm6.496.014c0-.579-.117-1.083-.35-1.512a2.41 2.41 0 00-.952-.98 2.498 2.498 0 00-1.302-.35c-.476 0-.91.112-1.302.336-.392.224-.705.55-.938.98-.234.43-.35.933-.35 1.512 0 .588.116 1.101.35 1.54.233.429.546.761.938.994.392.224.826.336 1.302.336.476 0 .91-.112 1.302-.336.4-.233.718-.565.952-.994.233-.439.35-.947.35-1.526zm6.535 3.948c-.645 0-1.223-.112-1.736-.336-.505-.233-.901-.551-1.19-.952a2.473 2.473 0 01-.449-1.414h1.358c.047.457.234.845.56 1.162.337.308.822.462 1.456.462.607 0 1.083-.149 1.428-.448.355-.308.532-.7.532-1.176 0-.373-.102-.677-.307-.91a1.967 1.967 0 00-.77-.532 12.037 12.037 0 00-1.246-.392c-.645-.168-1.163-.336-1.554-.504a2.58 2.58 0 01-.995-.784c-.27-.364-.405-.85-.405-1.456 0-.532.135-1.003.406-1.414.27-.41.648-.728 1.134-.952.494-.224 1.059-.336 1.694-.336.914 0 1.66.229 2.24.686.587.457.919 1.064.993 1.82h-1.4c-.046-.373-.242-.7-.587-.98-.346-.29-.803-.434-1.373-.434-.531 0-.965.14-1.301.42-.337.27-.505.653-.505 1.148 0 .355.099.644.294.868.206.224.453.397.743.518.298.112.714.243 1.245.392.644.177 1.162.355 1.554.532a2.51 2.51 0 011.009.798c.28.355.42.84.42 1.456 0 .476-.127.924-.379 1.344-.252.42-.625.761-1.12 1.022-.494.261-1.078.392-1.75.392zm4.646-3.948c0-.793.159-1.484.476-2.072a3.428 3.428 0 011.316-1.386c.57-.327 1.218-.49 1.946-.49.943 0 1.718.229 2.324.686.616.457 1.022 1.092 1.218 1.904h-1.372a1.959 1.959 0 00-.77-1.106c-.373-.27-.84-.406-1.4-.406-.728 0-1.316.252-1.764.756-.448.495-.672 1.2-.672 2.114 0 .924.224 1.638.672 2.142.448.504 1.036.756 1.764.756.56 0 1.027-.131 1.4-.392.374-.261.63-.635.77-1.12h1.372c-.205.784-.616 1.414-1.232 1.89-.616.467-1.386.7-2.31.7-.728 0-1.376-.163-1.946-.49a3.432 3.432 0 01-1.316-1.386c-.317-.597-.476-1.297-.476-2.1zm10.254-2.576a2.45 2.45 0 01.952-1.022c.42-.243.929-.364 1.526-.364v1.316h-.336c-1.428 0-2.142.775-2.142 2.324V103h-1.274v-7.672h1.274v1.246zm4.607-2.492a.838.838 0 01-.616-.252.838.838 0 01-.252-.616c0-.243.084-.448.252-.616a.838.838 0 01.616-.252c.233 0 .43.084.588.252a.838.838 0 01.252.616.838.838 0 01-.252.616.777.777 0 01-.588.252zm.616 1.246V103H59.11v-7.672h1.274zm3.445 1.414c.252-.439.625-.803 1.12-1.092.504-.299 1.088-.448 1.75-.448.681 0 1.297.163 1.848.49.56.327.999.789 1.316 1.386.317.588.476 1.274.476 2.058 0 .775-.159 1.465-.476 2.072a3.501 3.501 0 01-1.316 1.414 3.478 3.478 0 01-1.848.504c-.653 0-1.232-.145-1.736-.434-.494-.299-.872-.667-1.134-1.106v5.054h-1.274V95.328h1.274v1.414zm5.208 2.394c0-.579-.117-1.083-.35-1.512a2.41 2.41 0 00-.952-.98 2.578 2.578 0 00-1.302-.336c-.467 0-.9.117-1.302.35-.392.224-.71.555-.952.994-.233.43-.35.929-.35 1.498 0 .579.117 1.087.35 1.526.243.429.56.761.952.994.401.224.835.336 1.302.336.476 0 .91-.112 1.302-.336.401-.233.719-.565.952-.994.234-.439.35-.952.35-1.54zm4.533-2.758v4.522c0 .373.08.639.238.798.159.149.434.224.826.224h.938V103h-1.148c-.71 0-1.241-.163-1.596-.49-.355-.327-.532-.863-.532-1.61v-4.522h-.994v-1.05h.994v-1.932h1.274v1.932h2.002v1.05H73.57z" fill="#000" fill-opacity=".74"/><defs><filter id="filter0_d_8_2" x="3.385" y="6.507" width="72.992" height="72.021" filterUnits="userSpaceOnUse" color-interpolation-filters="sRGB"><feFlood flood-opacity="0" result="BackgroundImageFix"/><feColorMatrix in="SourceAlpha" values="0 0 0 0 0 0 0 0 0 0 0 0 0 0 0 0 0 0 127 0" result="hardAlpha"/><feOffset dy="4"/><feGaussianBlur stdDeviation="5"/><feColorMatrix values="0 0 0 0 0 0 0 0 0 0 0 0 0 0 0 0 0 0 0.13 0"/><feBlend in2="BackgroundImageFix" result="effect1_dropShadow_8_2"/><feBlend in="SourceGraphic" in2="effect1_dropShadow_8_2" result="shape"/></filter></defs></svg>