<svg width="270" height="207" fill="none" xmlns="http://www.w3.org/2000/svg"><rect y="51" width="32" height="23" rx="11.5" fill="#2BC155"/><path d="M52.534 58.118h1.998c.126-.918.792-1.782 2.232-1.782 1.404 0 2.142.756 2.142 1.89 0 1.404-1.134 1.944-2.988 1.962h-.486v1.692h.468c2.142 0 3.258.594 3.258 2.322 0 1.224-.756 2.16-2.286 2.16-1.548 0-2.448-.936-2.538-2.16h-1.98c.126 2.574 2.052 3.87 4.536 3.87 2.736 0 4.212-1.584 4.212-3.672 0-1.818-.882-2.952-2.25-3.366v-.072c1.026-.342 2.016-1.404 2.016-2.97 0-1.908-1.422-3.42-4.032-3.42-2.394 0-4.158 1.278-4.302 3.546zm10.724 3.15c0 3.816 1.008 6.696 4.68 6.696 3.672 0 4.68-2.88 4.68-6.696 0-3.744-1.008-6.624-4.68-6.624-3.672 0-4.68 2.88-4.68 6.624zm7.344 0c0 2.574-.27 4.824-2.664 4.824s-2.664-2.25-2.664-4.824c0-2.448.27-4.752 2.664-4.752s2.664 2.304 2.664 4.752zm3.863-3.222c0 1.8 1.17 2.826 2.736 2.826 1.566 0 2.736-1.026 2.736-2.826 0-1.782-1.17-2.808-2.736-2.808-1.566 0-2.736 1.026-2.736 2.808zm2.736-1.566c.684 0 1.134.45 1.134 1.566s-.45 1.584-1.134 1.584c-.702 0-1.134-.468-1.134-1.584s.432-1.566 1.134-1.566zM76.247 68h2.016l7.182-12.528h-2.016L76.247 68zm5.544-2.592c0 1.8 1.17 2.826 2.736 2.826 1.548 0 2.718-1.026 2.718-2.826s-1.17-2.808-2.718-2.808c-1.566 0-2.736 1.008-2.736 2.808zm2.718-1.566c.684 0 1.134.45 1.134 1.566s-.45 1.566-1.134 1.566c-.684 0-1.134-.45-1.134-1.566s.45-1.566 1.134-1.566z" fill="#000"/><path d="M120.63 66h1.344l-3.514-9.702h-1.47L113.462 66h1.344l.784-2.17h4.256l.784 2.17zm-1.148-3.206h-3.528l1.764-4.928 1.764 4.928zm5.304-3.052v-1.414h-1.274V69.64h1.274v-5.054c.476.784 1.47 1.54 2.87 1.54 2.058 0 3.64-1.61 3.64-3.99 0-2.394-1.582-3.934-3.64-3.934-1.4 0-2.408.728-2.87 1.54zm5.208 2.394c0 1.806-1.19 2.87-2.604 2.87-1.386 0-2.604-1.05-2.604-2.856 0-1.778 1.218-2.842 2.604-2.842 1.414 0 2.604 1.022 2.604 2.828zM132.973 66h1.274V55.64h-1.274V66zm3.445 0h1.274v-7.672h-1.274V66zm.658-8.918c.462 0 .84-.378.84-.868a.849.849 0 00-.84-.868.855.855 0 00-.868.868c0 .49.378.868.868.868zm2.311 5.068c0 2.436 1.554 3.976 3.738 3.976 1.904 0 3.15-1.064 3.542-2.59h-1.372c-.28.966-1.036 1.512-2.17 1.512-1.4 0-2.436-.994-2.436-2.898 0-1.876 1.036-2.87 2.436-2.87 1.134 0 1.904.588 2.17 1.512h1.372c-.392-1.61-1.638-2.59-3.542-2.59-2.184 0-3.738 1.54-3.738 3.948zm8.504-.014c0 2.38 1.582 3.99 3.626 3.99 1.414 0 2.408-.728 2.87-1.554V66h1.288v-7.672h-1.288v1.4c-.448-.798-1.428-1.526-2.856-1.526-2.058 0-3.64 1.54-3.64 3.934zm6.496.014c0 1.806-1.204 2.856-2.604 2.856-1.4 0-2.59-1.064-2.59-2.87s1.19-2.828 2.59-2.828 2.604 1.064 2.604 2.842zm3.721 1.75c0 1.54.77 2.1 2.128 2.1h1.148v-1.078h-.938c-.784 0-1.064-.266-1.064-1.022v-4.522h2.002v-1.05h-2.002v-1.932h-1.274v1.932h-.994v1.05h.994V63.9zm4.82 2.1h1.274v-7.672h-1.274V66zm.658-8.918c.462 0 .84-.378.84-.868a.849.849 0 00-.84-.868.855.855 0 00-.868.868c0 .49.378.868.868.868zm10.067 5.068c0-2.422-1.694-3.948-3.878-3.948-2.17 0-3.878 1.526-3.878 3.948 0 2.436 1.652 3.976 3.822 3.976 2.184 0 3.934-1.54 3.934-3.976zm-6.454 0c0-1.932 1.218-2.842 2.562-2.842 1.316 0 2.59.91 2.59 2.842 0 1.946-1.302 2.856-2.632 2.856s-2.52-.91-2.52-2.856zM180.942 66h1.26v-4.522c0-2.198-1.358-3.29-3.136-3.29-1.036 0-1.96.434-2.464 1.232v-1.092h-1.274V66h1.274v-4.242c0-1.652.896-2.464 2.198-2.464 1.288 0 2.142.798 2.142 2.366V66zm13.416-2.66c0-3.612-5.264-2.044-5.264-4.564 0-1.05.826-1.596 1.876-1.568 1.19.014 1.806.756 1.89 1.414h1.4c-.154-1.484-1.372-2.506-3.234-2.506-1.932 0-3.234 1.092-3.234 2.702 0 3.626 5.278 1.946 5.278 4.578 0 .924-.728 1.624-1.96 1.624-1.358 0-1.932-.812-2.016-1.624h-1.358c.028 1.61 1.414 2.702 3.374 2.702 2.114 0 3.248-1.372 3.248-2.758zm5.136-4.06c1.316 0 2.436.826 2.422 2.324h-4.844c.14-1.498 1.176-2.324 2.422-2.324zm3.584 4.354h-1.372c-.28.826-1.008 1.414-2.156 1.414-1.302 0-2.394-.854-2.492-2.408h6.132c.028-.266.042-.49.042-.77 0-2.1-1.456-3.668-3.682-3.668-2.24 0-3.794 1.526-3.794 3.948 0 2.436 1.61 3.976 3.794 3.976 1.904 0 3.136-1.092 3.528-2.492zm7.45 2.366h1.26v-4.522c0-2.198-1.358-3.29-3.136-3.29-1.036 0-1.96.434-2.464 1.232v-1.092h-1.274V66h1.274v-4.242c0-1.652.896-2.464 2.198-2.464 1.288 0 2.142.798 2.142 2.366V66zm3.621-2.1c0 1.54.77 2.1 2.128 2.1h1.148v-1.078h-.938c-.784 0-1.064-.266-1.064-1.022v-4.522h2.002v-1.05h-2.002v-1.932h-1.274v1.932h-.994v1.05h.994V63.9z" fill="#000" fill-opacity=".6"/><path d="M4.2 6.88V18h5.584v-1.472h-3.76V6.88H4.2zm10.821 3.696c1.36 0 2.432.864 2.464 2.224h-4.88c.192-1.392 1.184-2.224 2.416-2.224zm4.128 4.8h-1.968c-.336.688-.96 1.232-2.08 1.232-1.344 0-2.384-.88-2.512-2.336h6.736c.048-.304.064-.592.064-.896 0-2.592-1.776-4.336-4.288-4.336-2.608 0-4.4 1.776-4.4 4.544s1.872 4.56 4.4 4.56c2.16 0 3.552-1.232 4.048-2.768zm1.427-1.824c0 2.72 1.84 4.592 4.16 4.592 1.44 0 2.496-.72 3.056-1.472v1.472c0 1.76-1.056 2.624-2.464 2.624-1.264 0-2.24-.624-2.512-1.536h-1.808c.224 1.952 1.968 3.12 4.32 3.12 2.752 0 4.304-1.808 4.304-4.208v-8.96h-1.84v1.28c-.544-.752-1.616-1.424-3.056-1.424-2.32 0-4.16 1.792-4.16 4.512zm7.216.032c0 1.904-1.296 2.976-2.672 2.976-1.36 0-2.672-1.104-2.672-3.008s1.312-2.928 2.672-2.928c1.376 0 2.672 1.072 2.672 2.96zm7.948-3.008c1.36 0 2.432.864 2.464 2.224h-4.88c.192-1.392 1.184-2.224 2.416-2.224zm4.128 4.8H37.9c-.336.688-.96 1.232-2.08 1.232-1.344 0-2.384-.88-2.512-2.336h6.736c.048-.304.064-.592.064-.896 0-2.592-1.776-4.336-4.288-4.336-2.608 0-4.4 1.776-4.4 4.544s1.872 4.56 4.4 4.56c2.16 0 3.552-1.232 4.048-2.768zM48.16 18h1.808v-5.2c0-2.464-1.552-3.76-3.616-3.76-1.056 0-2.032.432-2.624 1.152V9.184h-1.824V18h1.824v-4.928c0-1.616.88-2.448 2.224-2.448 1.328 0 2.208.832 2.208 2.448V18zm3.527-4.448c0 2.72 1.84 4.592 4.16 4.592 1.44 0 2.496-.672 3.056-1.472V18h1.84V6.16h-1.84v4.256c-.672-.832-1.888-1.376-3.04-1.376-2.336 0-4.176 1.792-4.176 4.512zm7.216.032c0 1.904-1.296 2.976-2.672 2.976-1.36 0-2.672-1.104-2.672-3.008s1.312-2.928 2.672-2.928c1.376 0 2.672 1.072 2.672 2.96z" fill="#000"/><rect y="95" width="32" height="23" rx="11.5" fill="#FF9B52"/><path d="M58.85 112h2.016v-2.736h1.674v-1.782h-1.674V99.04h-2.484l-6.048 8.676v1.548h6.516V112zm-4.158-4.518l4.248-6.354v6.354h-4.248zm18.494-5.562c-.216-1.746-1.494-3.366-4.05-3.366-3.276 0-4.644 2.484-4.644 6.588 0 4.176.99 6.858 4.806 6.858 2.808 0 4.302-1.89 4.302-4.374 0-2.736-1.674-4.32-4.032-4.32-1.368 0-2.664.576-3.312 1.656.054-3.438 1.008-4.698 2.862-4.698 1.296 0 1.926.594 2.178 1.656h1.89zm-4.068 3.114c1.728 0 2.52 1.116 2.52 2.682 0 1.548-.936 2.574-2.448 2.574-1.746 0-2.7-1.08-2.7-2.7 0-1.746 1.278-2.556 2.628-2.556zm6.347-2.988c0 1.8 1.17 2.826 2.736 2.826 1.566 0 2.736-1.026 2.736-2.826 0-1.782-1.17-2.808-2.736-2.808-1.566 0-2.736 1.026-2.736 2.808zm2.736-1.566c.684 0 1.134.45 1.134 1.566s-.45 1.584-1.134 1.584c-.702 0-1.134-.468-1.134-1.584s.432-1.566 1.134-1.566zM77.247 112h2.016l7.182-12.528h-2.016L77.247 112zm5.544-2.592c0 1.8 1.17 2.826 2.736 2.826 1.548 0 2.718-1.026 2.718-2.826s-1.17-2.808-2.718-2.808c-1.566 0-2.736 1.008-2.736 2.808zm2.718-1.566c.684 0 1.134.45 1.134 1.566s-.45 1.566-1.134 1.566c-.684 0-1.134-.45-1.134-1.566s.45-1.566 1.134-1.566z" fill="#000"/><path d="M120.63 110h1.344l-3.514-9.702h-1.47L113.462 110h1.344l.784-2.17h4.256l.784 2.17zm-1.148-3.206h-3.528l1.764-4.928 1.764 4.928zm5.304-3.052v-1.414h-1.274v11.312h1.274v-5.054c.476.784 1.47 1.54 2.87 1.54 2.058 0 3.64-1.61 3.64-3.99 0-2.394-1.582-3.934-3.64-3.934-1.4 0-2.408.728-2.87 1.54zm5.208 2.394c0 1.806-1.19 2.87-2.604 2.87-1.386 0-2.604-1.05-2.604-2.856 0-1.778 1.218-2.842 2.604-2.842 1.414 0 2.604 1.022 2.604 2.828zm4.253-2.394v-1.414h-1.274v11.312h1.274v-5.054c.476.784 1.47 1.54 2.87 1.54 2.058 0 3.64-1.61 3.64-3.99 0-2.394-1.582-3.934-3.64-3.934-1.4 0-2.408.728-2.87 1.54zm5.208 2.394c0 1.806-1.19 2.87-2.604 2.87-1.386 0-2.604-1.05-2.604-2.856 0-1.778 1.218-2.842 2.604-2.842 1.414 0 2.604 1.022 2.604 2.828zm2.978 3.864h1.274V99.64h-1.274V110zm3.446 0h1.274V99.64h-1.274V110zm3.445 0h1.274v-7.672h-1.274V110zm.658-8.918c.462 0 .84-.378.84-.868a.849.849 0 00-.84-.868.855.855 0 00-.868.868c0 .49.378.868.868.868zm2.311 5.068c0 2.436 1.554 3.976 3.738 3.976 1.904 0 3.15-1.064 3.542-2.59h-1.372c-.28.966-1.036 1.512-2.17 1.512-1.4 0-2.436-.994-2.436-2.898 0-1.876 1.036-2.87 2.436-2.87 1.134 0 1.904.588 2.17 1.512h1.372c-.392-1.61-1.638-2.59-3.542-2.59-2.184 0-3.738 1.54-3.738 3.948zm8.504-.014c0 2.38 1.582 3.99 3.626 3.99 1.414 0 2.408-.728 2.87-1.554V110h1.288v-7.672h-1.288v1.4c-.448-.798-1.428-1.526-2.856-1.526-2.058 0-3.64 1.54-3.64 3.934zm6.496.014c0 1.806-1.204 2.856-2.604 2.856-1.4 0-2.59-1.064-2.59-2.87s1.19-2.828 2.59-2.828 2.604 1.064 2.604 2.842zm3.721 1.75c0 1.54.77 2.1 2.128 2.1h1.148v-1.078h-.938c-.784 0-1.064-.266-1.064-1.022v-4.522h2.002v-1.05h-2.002v-1.932h-1.274v1.932h-.994v1.05h.994v4.522zm4.82 2.1h1.274v-7.672h-1.274V110zm.658-8.918c.462 0 .84-.378.84-.868a.849.849 0 00-.84-.868.855.855 0 00-.868.868c0 .49.378.868.868.868zm10.067 5.068c0-2.422-1.694-3.948-3.878-3.948-2.17 0-3.878 1.526-3.878 3.948 0 2.436 1.652 3.976 3.822 3.976 2.184 0 3.934-1.54 3.934-3.976zm-6.454 0c0-1.932 1.218-2.842 2.562-2.842 1.316 0 2.59.91 2.59 2.842 0 1.946-1.302 2.856-2.632 2.856s-2.52-.91-2.52-2.856zm13.743 3.85h1.26v-4.522c0-2.198-1.358-3.29-3.136-3.29-1.036 0-1.96.434-2.464 1.232v-1.092h-1.274V110h1.274v-4.242c0-1.652.896-2.464 2.198-2.464 1.288 0 2.142.798 2.142 2.366V110zm13.626 0h1.344l-3.514-9.702h-1.47L200.306 110h1.344l.784-2.17h4.256l.784 2.17zm-1.148-3.206h-3.528l1.764-4.928 1.764 4.928zm9.643 3.206h1.26v-4.522c0-2.198-1.358-3.29-3.136-3.29-1.036 0-1.96.434-2.464 1.232v-1.092h-1.274V110h1.274v-4.242c0-1.652.896-2.464 2.198-2.464 1.288 0 2.142.798 2.142 2.366V110zm8.857-2.086c-.056-2.744-4.508-1.75-4.508-3.57 0-.616.56-1.064 1.498-1.064 1.022 0 1.61.56 1.666 1.33h1.274c-.084-1.498-1.204-2.408-2.898-2.408-1.708 0-2.814.966-2.814 2.142 0 2.856 4.536 1.862 4.536 3.57 0 .63-.56 1.134-1.568 1.134-1.078 0-1.736-.56-1.806-1.302h-1.316c.084 1.4 1.344 2.38 3.136 2.38 1.694 0 2.8-.952 2.8-2.212zm3.297 2.086h1.316l1.848-6.09 1.848 6.09h1.316l2.394-7.672h-1.26l-1.736 6.454-1.862-6.454h-1.302l-1.904 6.44-1.764-6.44h-1.302l2.408 7.672zm13.248-6.72c1.316 0 2.436.826 2.422 2.324h-4.844c.14-1.498 1.176-2.324 2.422-2.324zm3.584 4.354h-1.372c-.28.826-1.008 1.414-2.156 1.414-1.302 0-2.394-.854-2.492-2.408h6.132c.028-.266.042-.49.042-.77 0-2.1-1.456-3.668-3.682-3.668-2.24 0-3.794 1.526-3.794 3.948 0 2.436 1.61 3.976 3.794 3.976 1.904 0 3.136-1.092 3.528-2.492zm3.11-1.806c0-1.778.924-2.324 2.142-2.324h.336v-1.316c-1.218 0-2.044.532-2.478 1.386v-1.246h-1.274V110h1.274v-4.172zm7.211-2.548c1.316 0 2.436.826 2.422 2.324h-4.844c.14-1.498 1.176-2.324 2.422-2.324zm3.584 4.354h-1.372c-.28.826-1.008 1.414-2.156 1.414-1.302 0-2.394-.854-2.492-2.408h6.132c.028-.266.042-.49.042-.77 0-2.1-1.456-3.668-3.682-3.668-2.24 0-3.794 1.526-3.794 3.948 0 2.436 1.61 3.976 3.794 3.976 1.904 0 3.136-1.092 3.528-2.492zm1.359-1.498c0 2.38 1.582 3.99 3.64 3.99 1.4 0 2.394-.714 2.856-1.568V110h1.288V99.64h-1.288v4.06c-.532-.882-1.638-1.498-2.842-1.498-2.072 0-3.654 1.54-3.654 3.934zm6.496.014c0 1.806-1.204 2.856-2.604 2.856-1.4 0-2.59-1.064-2.59-2.87s1.19-2.828 2.59-2.828 2.604 1.064 2.604 2.842z" fill="#000" fill-opacity=".6"/><rect y="139" width="32" height="23" rx="11.5" fill="#3F9AE0"/><path d="M54.246 156h2.07v-13.122h-3.744v1.872h1.674V156zm11.153 0h2.016v-2.736h1.674v-1.782h-1.674v-8.442H64.93l-6.048 8.676v1.548h6.516V156zm-4.158-4.518l4.248-6.354v6.354H61.24zm9.224-5.436c0 1.8 1.17 2.826 2.736 2.826 1.566 0 2.736-1.026 2.736-2.826 0-1.782-1.17-2.808-2.736-2.808-1.566 0-2.736 1.026-2.736 2.808zm2.736-1.566c.684 0 1.134.45 1.134 1.566s-.45 1.584-1.134 1.584c-.702 0-1.134-.468-1.134-1.584s.432-1.566 1.134-1.566zM72.247 156h2.016l7.182-12.528h-2.016L72.247 156zm5.544-2.592c0 1.8 1.17 2.826 2.736 2.826 1.548 0 2.718-1.026 2.718-2.826s-1.17-2.808-2.718-2.808c-1.566 0-2.736 1.008-2.736 2.808zm2.718-1.566c.684 0 1.134.45 1.134 1.566s-.45 1.566-1.134 1.566c-.684 0-1.134-.45-1.134-1.566s.45-1.566 1.134-1.566z" fill="#000"/><path d="M120.322 154h1.274v-9.758h-1.274v4.284h-4.97v-4.284h-1.274V154h1.274v-4.424h4.97V154zm3.436 0h1.274v-7.672h-1.274V154zm.658-8.918c.462 0 .84-.378.84-.868a.849.849 0 00-.84-.868.855.855 0 00-.868.868c0 .49.378.868.868.868zm4.061 4.746c0-1.778.924-2.324 2.142-2.324h.336v-1.316c-1.218 0-2.044.532-2.478 1.386v-1.246h-1.274V154h1.274v-4.172zm7.211-2.548c1.316 0 2.436.826 2.422 2.324h-4.844c.14-1.498 1.176-2.324 2.422-2.324zm3.584 4.354H137.9c-.28.826-1.008 1.414-2.156 1.414-1.302 0-2.394-.854-2.492-2.408h6.132c.028-.266.042-.49.042-.77 0-2.1-1.456-3.668-3.682-3.668-2.24 0-3.794 1.526-3.794 3.948 0 2.436 1.61 3.976 3.794 3.976 1.904 0 3.136-1.092 3.528-2.492zm1.359-1.498c0 2.38 1.582 3.99 3.64 3.99 1.4 0 2.394-.714 2.856-1.568V154h1.288v-10.36h-1.288v4.06c-.532-.882-1.638-1.498-2.842-1.498-2.072 0-3.654 1.54-3.654 3.934zm6.496.014c0 1.806-1.204 2.856-2.604 2.856-1.4 0-2.59-1.064-2.59-2.87s1.19-2.828 2.59-2.828 2.604 1.064 2.604 2.842z" fill="#000" fill-opacity=".6"/><rect y="183" width="32" height="23" rx="11.5" fill="#C4C4C4"/><path d="M54.369 200h2.07v-13.122h-3.744v1.872h1.674V200zm4.889-6.732c0 3.816 1.008 6.696 4.68 6.696 3.672 0 4.68-2.88 4.68-6.696 0-3.744-1.008-6.624-4.68-6.624-3.672 0-4.68 2.88-4.68 6.624zm7.344 0c0 2.574-.27 4.824-2.664 4.824s-2.664-2.25-2.664-4.824c0-2.448.27-4.752 2.664-4.752s2.664 2.304 2.664 4.752zm3.863-3.222c0 1.8 1.17 2.826 2.736 2.826 1.566 0 2.736-1.026 2.736-2.826 0-1.782-1.17-2.808-2.736-2.808-1.566 0-2.736 1.026-2.736 2.808zm2.736-1.566c.684 0 1.134.45 1.134 1.566s-.45 1.584-1.134 1.584c-.702 0-1.134-.468-1.134-1.584s.432-1.566 1.134-1.566zM72.247 200h2.016l7.182-12.528h-2.016L72.247 200zm5.544-2.592c0 1.8 1.17 2.826 2.736 2.826 1.548 0 2.718-1.026 2.718-2.826s-1.17-2.808-2.718-2.808c-1.566 0-2.736 1.008-2.736 2.808zm2.718-1.566c.684 0 1.134.45 1.134 1.566s-.45 1.566-1.134 1.566c-.684 0-1.134-.45-1.134-1.566s.45-1.566 1.134-1.566z" fill="#000"/><path d="M115.352 192.876v-3.584h1.876c1.456 0 2.072.672 2.072 1.806 0 1.092-.616 1.778-2.072 1.778h-1.876zm5.25-1.778c0-1.596-1.078-2.856-3.374-2.856h-3.15V198h1.274v-4.074h1.876c2.422 0 3.374-1.344 3.374-2.828zm4.845.182c1.316 0 2.436.826 2.422 2.324h-4.844c.14-1.498 1.176-2.324 2.422-2.324zm3.584 4.354h-1.372c-.28.826-1.008 1.414-2.156 1.414-1.302 0-2.394-.854-2.492-2.408h6.132c.028-.266.042-.49.042-.77 0-2.1-1.456-3.668-3.682-3.668-2.24 0-3.794 1.526-3.794 3.948 0 2.436 1.61 3.976 3.794 3.976 1.904 0 3.136-1.092 3.528-2.492zm7.45 2.366h1.26v-4.522c0-2.198-1.358-3.29-3.136-3.29-1.036 0-1.96.434-2.464 1.232v-1.092h-1.274V198h1.274v-4.242c0-1.652.896-2.464 2.198-2.464 1.288 0 2.142.798 2.142 2.366V198zm2.865-3.864c0 2.38 1.582 3.99 3.64 3.99 1.4 0 2.394-.714 2.856-1.568V198h1.288v-10.36h-1.288v4.06c-.532-.882-1.638-1.498-2.842-1.498-2.072 0-3.654 1.54-3.654 3.934zm6.496.014c0 1.806-1.204 2.856-2.604 2.856-1.4 0-2.59-1.064-2.59-2.87s1.19-2.828 2.59-2.828 2.604 1.064 2.604 2.842zm3.441 3.85h1.274v-7.672h-1.274V198zm.658-8.918c.462 0 .84-.378.84-.868a.849.849 0 00-.84-.868.855.855 0 00-.868.868c0 .49.378.868.868.868zm8.401 8.918h1.26v-4.522c0-2.198-1.358-3.29-3.136-3.29-1.036 0-1.96.434-2.464 1.232v-1.092h-1.274V198h1.274v-4.242c0-1.652.896-2.464 2.198-2.464 1.288 0 2.142.798 2.142 2.366V198zm2.865-3.864c0 2.38 1.582 3.99 3.64 3.99 1.4 0 2.394-.742 2.856-1.568v1.61c0 1.638-1.022 2.506-2.38 2.506-1.26 0-2.17-.63-2.45-1.554h-1.26c.252 1.638 1.694 2.66 3.71 2.66 2.254 0 3.668-1.498 3.668-3.612v-7.84h-1.288v1.4c-.448-.826-1.456-1.526-2.856-1.526-2.058 0-3.64 1.54-3.64 3.934zm6.496.014c0 1.806-1.204 2.856-2.604 2.856-1.4 0-2.59-1.064-2.59-2.87s1.19-2.828 2.59-2.828 2.604 1.064 2.604 2.842z" fill="#000" fill-opacity=".6"/></svg>