<svg width="218" height="152" fill="none" xmlns="http://www.w3.org/2000/svg"><rect y="10" width="31" height="31" rx="15.5" fill="#374C98"/><path d="M59.05 15h1.596v-4.256h3.22V9.442h-3.22v-2.87h4.13V5.27H59.05V15zm14.555-3.864c0-2.422-1.736-3.976-3.934-3.976-2.198 0-3.934 1.554-3.934 3.976 0 2.422 1.666 3.99 3.864 3.99 2.212 0 4.004-1.568 4.004-3.99zm-6.244 0c0-1.75 1.078-2.59 2.282-2.59 1.19 0 2.324.84 2.324 2.59s-1.176 2.604-2.366 2.604c-1.204 0-2.24-.854-2.24-2.604zM75.183 15h1.596V4.64h-1.596V15zm3.691 0h1.596V4.64h-1.596V15zm11.042-3.864c0-2.422-1.736-3.976-3.934-3.976-2.198 0-3.934 1.554-3.934 3.976 0 2.422 1.666 3.99 3.864 3.99 2.212 0 4.004-1.568 4.004-3.99zm-6.244 0c0-1.75 1.078-2.59 2.282-2.59 1.19 0 2.324.84 2.324 2.59s-1.176 2.604-2.366 2.604c-1.204 0-2.24-.854-2.24-2.604zM92.992 15h1.68l1.553-5.698L97.78 15h1.68l2.394-7.714h-1.568L98.69 13.46l-1.568-6.174h-1.666l-1.638 6.202-1.61-6.202h-1.624L92.991 15zm10.054 0h1.596V7.286h-1.596V15zm.812-8.736c.56 0 1.008-.448 1.008-1.022 0-.574-.448-1.022-1.008-1.022a1.01 1.01 0 00-1.022 1.022 1.01 1.01 0 001.022 1.022zM112.212 15h1.582v-4.55c0-2.156-1.358-3.29-3.164-3.29-.924 0-1.778.378-2.296 1.008v-.882h-1.596V15h1.596v-4.312c0-1.414.77-2.142 1.946-2.142 1.162 0 1.932.728 1.932 2.142V15zm3.085-3.892c0 2.38 1.61 4.018 3.64 4.018 1.26 0 2.184-.63 2.674-1.288v1.288c0 1.54-.924 2.296-2.156 2.296-1.106 0-1.96-.546-2.198-1.344h-1.582c.196 1.708 1.722 2.73 3.78 2.73 2.408 0 3.766-1.582 3.766-3.682v-7.84h-1.61v1.12c-.476-.658-1.414-1.246-2.674-1.246-2.03 0-3.64 1.568-3.64 3.948zm6.314.028c0 1.666-1.134 2.604-2.338 2.604-1.19 0-2.338-.966-2.338-2.632 0-1.666 1.148-2.562 2.338-2.562 1.204 0 2.338.938 2.338 2.59z" fill="#000" fill-opacity=".6"/><path d="M59.82 35.38v8.56h2.68c.3-.9 1.04-1.54 2.2-1.54 1.58 0 2.4.9 2.4 2.54 0 1.54-.74 2.7-2.38 2.7-1.36 0-2.18-.74-2.42-1.76h-2.72c.24 2.38 2.04 4.12 5.18 4.12 3.32 0 5.04-2.12 5.04-5.1 0-2.26-1.16-4.82-4.56-4.82-1.22 0-2.32.52-2.86 1.18v-3.42h6.48v-2.46h-9.04zm22.271 3.68c-.22-2.06-1.62-3.98-4.6-3.98-3.7 0-5.24 2.64-5.24 7.4 0 4.52 1.08 7.56 5.4 7.56 3.12 0 4.86-2.06 4.86-4.88 0-3.04-1.82-4.76-4.42-4.76-1.42 0-2.74.6-3.4 1.7.04-3.36.88-4.72 2.7-4.72 1.26 0 1.84.6 2.1 1.68h2.6zm-4.64 3.64c1.62 0 2.4 1.02 2.4 2.52s-.9 2.44-2.34 2.44c-1.64 0-2.56-.98-2.56-2.54 0-1.66 1.2-2.42 2.5-2.42zm6.913-7.24v2.4h6.84L85.844 50h2.84l5.32-12.46v-2.08h-9.64zM100.087 43c0 4.18 3.06 7.12 7.08 7.12 3.1 0 5.62-1.64 6.56-4.52h-3.22c-.66 1.36-1.86 2.02-3.36 2.02-2.44 0-4.18-1.8-4.18-4.62 0-2.84 1.74-4.62 4.18-4.62 1.5 0 2.7.66 3.36 2h3.22c-.94-2.86-3.46-4.52-6.56-4.52-4.02 0-7.08 2.96-7.08 7.14zm26.731 1.46c0-3.5-2.5-5.72-5.7-5.72s-5.7 2.22-5.7 5.72c0 3.48 2.42 5.72 5.62 5.72 3.22 0 5.78-2.24 5.78-5.72zm-8.56 0c0-2.22 1.34-3.28 2.82-3.28 1.48 0 2.86 1.06 2.86 3.28 0 2.2-1.42 3.28-2.9 3.28-1.5 0-2.78-1.08-2.78-3.28zM144.372 50h2.8v-6.5c0-3.06-1.88-4.74-4.54-4.74-1.62 0-3.08.86-3.8 2.12-.76-1.38-2.18-2.12-3.9-2.12-1.38 0-2.56.58-3.26 1.5v-1.34h-2.8V50h2.8v-6.12c0-1.76.98-2.68 2.5-2.68 1.48 0 2.46.92 2.46 2.68V50h2.8v-6.12c0-1.76.98-2.68 2.48-2.68 1.48 0 2.46.92 2.46 2.68V50zm8.257-9.48v-1.6h-2.8v16.36h2.8v-6.86c.68.9 1.92 1.76 3.66 1.76 2.84 0 5.06-2.3 5.06-5.76s-2.22-5.68-5.06-5.68c-1.72 0-3 .84-3.66 1.78zm5.86 3.9c0 2.1-1.42 3.3-2.94 3.3-1.5 0-2.92-1.16-2.92-3.26 0-2.1 1.42-3.26 2.92-3.26 1.52 0 2.94 1.12 2.94 3.22zm4.175 0c0 3.46 2.24 5.76 5.04 5.76 1.76 0 3.02-.84 3.68-1.8V50h2.82V38.92h-2.82v1.58c-.66-.92-1.88-1.76-3.66-1.76-2.82 0-5.06 2.22-5.06 5.68zm8.72.04c0 2.1-1.4 3.26-2.94 3.26-1.5 0-2.92-1.2-2.92-3.3 0-2.1 1.42-3.22 2.92-3.22 1.54 0 2.94 1.16 2.94 3.26zM184.699 50h2.8v-6.5c0-3.06-1.84-4.74-4.42-4.74-1.42 0-2.62.6-3.34 1.54v-1.38h-2.8V50h2.8v-6.12c0-1.78.98-2.74 2.5-2.74 1.48 0 2.46.96 2.46 2.74V50zm5.462 0h2.8V38.92h-2.8V50zm1.42-12.4c.98 0 1.72-.72 1.72-1.64 0-.92-.74-1.64-1.72-1.64-1 0-1.72.72-1.72 1.64 0 .92.72 1.64 1.72 1.64zm8.907 3.44c1.44 0 2.6.92 2.64 2.38h-5.26c.22-1.52 1.28-2.38 2.62-2.38zm5.26 5.48h-3.02c-.36.74-1.02 1.34-2.22 1.34-1.4 0-2.52-.92-2.66-2.56h8.1c.06-.36.08-.72.08-1.08 0-3.3-2.26-5.48-5.46-5.48-3.28 0-5.56 2.22-5.56 5.72 0 3.48 2.34 5.72 5.56 5.72 2.74 0 4.58-1.62 5.18-3.66zm10.923.32c-.08-4.06-6.22-2.8-6.22-4.82 0-.64.54-1.06 1.58-1.06 1.1 0 1.78.58 1.86 1.44h2.68c-.16-2.2-1.78-3.66-4.46-3.66-2.74 0-4.38 1.48-4.38 3.32 0 4.06 6.26 2.8 6.26 4.78 0 .64-.6 1.14-1.7 1.14-1.12 0-1.9-.64-2-1.48h-2.82c.12 2.06 2.06 3.68 4.84 3.68 2.7 0 4.36-1.44 4.36-3.34z" fill="#000"/><rect y="107" width="31" height="31" rx="15.5" fill="#FBA92D"/><path d="M59.05 109h1.596v-4.256h3.22v-1.302h-3.22v-2.87h4.13V99.27H59.05V109zm14.555-3.864c0-2.422-1.736-3.976-3.934-3.976-2.198 0-3.934 1.554-3.934 3.976 0 2.422 1.666 3.99 3.864 3.99 2.212 0 4.004-1.568 4.004-3.99zm-6.244 0c0-1.75 1.078-2.59 2.282-2.59 1.19 0 2.324.84 2.324 2.59s-1.176 2.604-2.366 2.604c-1.204 0-2.24-.854-2.24-2.604zM75.183 109h1.596V98.64h-1.596V109zm3.691 0h1.596V98.64h-1.596V109zm11.042-3.864c0-2.422-1.736-3.976-3.934-3.976-2.198 0-3.934 1.554-3.934 3.976 0 2.422 1.666 3.99 3.864 3.99 2.212 0 4.004-1.568 4.004-3.99zm-6.244 0c0-1.75 1.078-2.59 2.282-2.59 1.19 0 2.324.84 2.324 2.59s-1.176 2.604-2.366 2.604c-1.204 0-2.24-.854-2.24-2.604zm9.32 3.864h1.68l1.553-5.698L97.78 109h1.68l2.394-7.714h-1.568l-1.596 6.174-1.568-6.174h-1.666l-1.638 6.202-1.61-6.202h-1.624L92.991 109zm13.302-6.496c1.19 0 2.128.756 2.156 1.946h-4.27c.168-1.218 1.036-1.946 2.114-1.946zm3.612 4.2h-1.722c-.294.602-.84 1.078-1.82 1.078-1.176 0-2.086-.77-2.198-2.044h5.894c.042-.266.056-.518.056-.784 0-2.268-1.554-3.794-3.752-3.794-2.282 0-3.85 1.554-3.85 3.976 0 2.422 1.638 3.99 3.85 3.99 1.89 0 3.108-1.078 3.542-2.422zm3.377-1.764c0-1.638.728-2.128 1.904-2.128h.406v-1.652c-1.092 0-1.862.476-2.31 1.246v-1.12h-1.596V109h1.596v-4.06zm9.531 1.904c-.084-2.786-4.438-1.918-4.438-3.472 0-.518.448-.868 1.302-.868.868 0 1.386.462 1.442 1.134h1.596c-.084-1.54-1.232-2.478-2.982-2.478-1.82 0-2.968.994-2.968 2.226 0 2.828 4.48 1.96 4.48 3.472 0 .532-.49.924-1.414.924-.882 0-1.484-.518-1.54-1.148h-1.652c.07 1.4 1.372 2.492 3.22 2.492 1.82 0 2.954-.98 2.954-2.282z" fill="#000" fill-opacity=".6"/><path d="M61.5 136.28c-1.44.6-2.34 1.86-2.34 3.58 0 2.78 2.28 4.46 5.26 4.46 3 0 5.28-1.68 5.28-4.46 0-1.7-.9-2.96-2.34-3.58 1.14-.58 1.98-1.68 1.98-3.22 0-2.08-1.6-3.92-4.92-3.92s-4.92 1.82-4.92 3.92c0 1.58.8 2.6 2 3.22zm2.92-.82c-1.26 0-2.18-.78-2.18-1.98 0-1.36.88-2.08 2.18-2.08 1.34 0 2.2.74 2.2 2.06 0 1.2-.92 2-2.2 2zm0 2.04c1.5 0 2.54.8 2.54 2.24 0 1.28-.94 2.26-2.54 2.26s-2.56-.96-2.56-2.26c0-1.48 1.1-2.24 2.56-2.24zm6.672 9.38h1.82l2.48-5.96h-2.96l-1.34 5.96zm5.957-13.62h2.74c.1-.92.68-1.8 2.04-1.8 1.28 0 1.98.68 1.98 1.82 0 1.44-1.2 1.9-2.84 1.9h-.58v2.3h.58c2.08 0 3.12.6 3.12 2.24 0 1.16-.72 2.04-2.12 2.04-1.5 0-2.34-.9-2.4-2.16h-2.72c.12 3.06 2.3 4.5 5.18 4.5 3.06 0 4.74-1.76 4.74-4.14 0-1.98-.98-3.18-2.46-3.64v-.08c1.06-.36 2.2-1.48 2.2-3.3 0-2.16-1.6-3.86-4.6-3.86-2.8 0-4.72 1.48-4.86 4.18zm11.973 0h2.74c.1-.92.68-1.8 2.04-1.8 1.28 0 1.98.68 1.98 1.82 0 1.44-1.2 1.9-2.84 1.9h-.58v2.3h.58c2.08 0 3.12.6 3.12 2.24 0 1.16-.72 2.04-2.12 2.04-1.5 0-2.34-.9-2.4-2.16h-2.72c.12 3.06 2.3 4.5 5.18 4.5 3.06 0 4.74-1.76 4.74-4.14 0-1.98-.98-3.18-2.46-3.64v-.08c1.06-.36 2.2-1.48 2.2-3.3 0-2.16-1.6-3.86-4.6-3.86-2.8 0-4.72 1.48-4.86 4.18zM107.835 144h2.8v-2.84h1.76v-2.44h-1.76v-9.12h-3.26l-6.54 9.36v2.2h7V144zm-3.92-5.28l4.1-6.12v6.12h-4.1zm18.148-2.34v-4.06h2.22c1.58 0 2.28.76 2.28 2.04 0 1.24-.7 2.02-2.28 2.02h-2.22zm7.38-2.02c0-2.42-1.68-4.32-5.04-4.32h-5.14V144h2.8v-5.36h2.34c3.6 0 5.04-2.16 5.04-4.28zm6.748.68c1.44 0 2.6.92 2.64 2.38h-5.26c.22-1.52 1.28-2.38 2.62-2.38zm5.26 5.48h-3.02c-.36.74-1.02 1.34-2.22 1.34-1.4 0-2.52-.92-2.66-2.56h8.1c.06-.36.08-.72.08-1.08 0-3.3-2.26-5.48-5.46-5.48-3.28 0-5.56 2.22-5.56 5.72 0 3.48 2.34 5.72 5.56 5.72 2.74 0 4.58-1.62 5.18-3.66zm5.124-2.04c0-2.14 1-2.78 2.66-2.78h.74v-2.94c-1.54 0-2.7.74-3.4 1.88v-1.72h-2.8V144h2.8v-5.52zm13.885 2.36c-.08-4.06-6.22-2.8-6.22-4.82 0-.64.54-1.06 1.58-1.06 1.1 0 1.78.58 1.86 1.44h2.68c-.16-2.2-1.78-3.66-4.46-3.66-2.74 0-4.38 1.48-4.38 3.32 0 4.06 6.26 2.8 6.26 4.78 0 .64-.6 1.14-1.7 1.14-1.12 0-1.9-.64-2-1.48h-2.82c.12 2.06 2.06 3.68 4.84 3.68 2.7 0 4.36-1.44 4.36-3.34zm12.999-2.38c0-3.5-2.5-5.72-5.7-5.72s-5.7 2.22-5.7 5.72c0 3.48 2.42 5.72 5.62 5.72 3.22 0 5.78-2.24 5.78-5.72zm-8.56 0c0-2.22 1.34-3.28 2.82-3.28 1.48 0 2.86 1.06 2.86 3.28 0 2.2-1.42 3.28-2.9 3.28-1.5 0-2.78-1.08-2.78-3.28zm18.374 5.54h2.8v-6.5c0-3.06-1.84-4.74-4.42-4.74-1.42 0-2.62.6-3.34 1.54v-1.38h-2.8V144h2.8v-6.12c0-1.78.98-2.74 2.5-2.74 1.48 0 2.46.96 2.46 2.74V144z" fill="#000"/></svg>