<svg width="49" height="49" fill="none" xmlns="http://www.w3.org/2000/svg"><rect width="49" height="49" rx="18" fill="#0073B1"/><path d="M34.595 33.6h.005v-7.042c0-3.445-.742-6.099-4.77-6.099-1.935 0-3.234 1.063-3.765 2.07h-.056V20.78h-3.818v12.818h3.976v-6.347c0-1.671.317-3.287 2.386-3.287 2.04 0 2.07 1.907 2.07 3.394V33.6h3.972zM15.717 20.782h3.98V33.6h-3.98V20.782zm1.989-6.382a2.306 2.306 0 00-2.306 2.306c0 1.273 1.033 2.327 2.306 2.327 1.273 0 2.305-1.054 2.305-2.327a2.307 2.307 0 00-2.305-2.306z" fill="#fff"/></svg>