<svg width="49" height="49" fill="none" xmlns="http://www.w3.org/2000/svg"><rect x=".501" y=".5" width="48" height="48" rx="24" stroke="#EDDFFF"/><g clip-path="url(#clip0_9_3737)"><path d="M35.582 30.706l-.124-.268c-.371-.878-4.95-2.224-5.33-2.246l-.304.023c-.625.13-1.312.72-2.756 2-1.627-.752-3.855-2.759-4.905-3.944-1.137-1.28-2.556-3.436-3.066-5.046 1.647-1.459 2.333-2.093 2.377-2.797.023-.38-.762-5.085-1.59-5.562l-.248-.156c-.526-.34-1.323-.853-2.207-.673a1.934 1.934 0 00-.619.25c-.593.375-2.046 1.383-2.71 2.701-.408.821-.594 8.314 5.022 14.647 4.735 5.343 10.41 6.323 12.61 6.365h.29c.23-.005.408-.021.517-.043l.029-.005.091-.028c1.389-.497 2.564-1.82 3.006-2.366.816-1.01.233-2.209-.083-2.852z" fill="#272643"/></g><defs><clipPath id="clip0_9_3737"><path fill="#fff" transform="translate(13.001 12)" d="M0 0h24v24H0z"/></clipPath></defs></svg>