<svg width="245" height="245" fill="none" xmlns="http://www.w3.org/2000/svg"><path d="M17.888 200.25A133.499 133.499 0 01196.742 15.933l-37.418 69.562a54.512 54.512 0 00-73.03 75.261L17.887 200.25z" fill="#374C98"/><path d="M186.512 36.3a110.712 110.712 0 0156.485 80.81A110.708 110.708 0 01169.9 238.063a110.709 110.709 0 01-97.807-12.436 110.713 110.713 0 01-34.597-36.979l42.396-24.353a61.823 61.823 0 1083.21-85.071l23.41-42.924z" fill="#FFAB2D"/><g filter="url(#filter0_d_9_4622)"><circle cx="133.045" cy="133.045" r="61.965" fill="#fff"/></g><path d="M105.501 142.964h14.82v-3.48h-8.85c3.48-2.94 8.37-6.9 8.37-11.97 0-3.81-2.37-6.6-7.08-6.6-3.93 0-7.14 2.31-7.29 7.32h4.08c.03-2.31 1.14-3.75 3.15-3.75 2.07 0 2.94 1.32 2.94 3.27 0 4.02-5.19 7.89-10.14 12.09v3.12zm17.527-15.81h4.11c.15-1.38 1.02-2.7 3.06-2.7 1.92 0 2.97 1.02 2.97 2.73 0 2.16-1.8 2.85-4.26 2.85h-.87v3.45h.87c3.12 0 4.68.9 4.68 3.36 0 1.74-1.08 3.06-3.18 3.06-2.25 0-3.51-1.35-3.6-3.24h-4.08c.18 4.59 3.45 6.75 7.77 6.75 4.59 0 7.11-2.64 7.11-6.21 0-2.97-1.47-4.77-3.69-5.46v-.12c1.59-.54 3.3-2.22 3.3-4.95 0-3.24-2.4-5.79-6.9-5.79-4.2 0-7.08 2.22-7.29 6.27zm17.419-.39c0 3.15 2.04 4.89 4.77 4.89 2.73 0 4.77-1.74 4.77-4.89 0-3.12-2.04-4.86-4.77-4.86-2.73 0-4.77 1.74-4.77 4.86zm4.74-2.34c1.05 0 1.71.69 1.71 2.34s-.66 2.37-1.71 2.37c-1.02 0-1.65-.72-1.65-2.37 0-1.65.63-2.34 1.65-2.34zm-1.35 18.84h4.08l11.79-21h-4.11l-11.76 21zm9.78-4.53c0 3.18 2.04 4.89 4.77 4.89 2.7 0 4.71-1.71 4.71-4.89 0-3.15-2.01-4.86-4.71-4.86-2.73 0-4.77 1.71-4.77 4.86zm4.74-2.34c1.02 0 1.68.69 1.68 2.34 0 1.68-.66 2.37-1.68 2.37-1.05 0-1.71-.69-1.71-2.37 0-1.65.66-2.34 1.71-2.34z" fill="#000"/><defs><filter id="filter0_d_9_4622" x="44.08" y="52.08" width="177.93" height="177.93" filterUnits="userSpaceOnUse" color-interpolation-filters="sRGB"><feFlood flood-opacity="0" result="BackgroundImageFix"/><feColorMatrix in="SourceAlpha" values="0 0 0 0 0 0 0 0 0 0 0 0 0 0 0 0 0 0 127 0" result="hardAlpha"/><feOffset dy="8"/><feGaussianBlur stdDeviation="13.5"/><feColorMatrix values="0 0 0 0 0 0 0 0 0 0 0 0 0 0 0 0 0 0 0.25 0"/><feBlend in2="BackgroundImageFix" result="effect1_dropShadow_9_4622"/><feBlend in="SourceGraphic" in2="effect1_dropShadow_9_4622" result="shape"/></filter></defs></svg>