<svg width="80" height="109" fill="none" xmlns="http://www.w3.org/2000/svg"><ellipse cx="40.012" cy="38.517" rx="29.05" ry="28.517" stroke="#F0F0F0" stroke-width="20" stroke-linecap="round"/><path d="M40.012 10c4.656 0 9.244 1.099 13.377 3.204a28.897 28.897 0 0110.372 8.891 28.218 28.218 0 015.036 12.581c.627 4.53.136 9.14-1.432 13.444l-27.353-9.602V10z" stroke="#3EA834" stroke-width="20" stroke-linecap="round"/><g filter="url(#filter0_d_8_11)"><rect x="13.515" y="12.507" width="52.992" height="52.021" rx="26.01" fill="#fff"/></g><path d="M27.08 34.837h2.192c.08-.736.544-1.44 1.632-1.44 1.024 0 1.584.544 1.584 1.456 0 1.152-.96 1.52-2.272 1.52h-.464v1.84h.464c1.664 0 2.496.48 2.496 1.792 0 .928-.576 1.633-1.696 1.633-1.2 0-1.872-.72-1.92-1.728H26.92c.096 2.448 1.84 3.6 4.144 3.6 2.448 0 3.792-1.408 3.792-3.313 0-1.584-.784-2.544-1.968-2.912v-.063c.848-.288 1.76-1.184 1.76-2.64 0-1.729-1.28-3.088-3.68-3.088-2.24 0-3.776 1.184-3.888 3.343zm10.826 8.592h2.304V31.765h-3.856v2.065h1.552v9.6zm4.261-8.8c0 1.68 1.088 2.608 2.544 2.608s2.544-.928 2.544-2.608c0-1.663-1.088-2.591-2.544-2.591s-2.544.928-2.544 2.592zm2.528-1.247c.56 0 .912.367.912 1.248 0 .88-.352 1.264-.912 1.264-.544 0-.88-.384-.88-1.264s.336-1.248.88-1.248zm-.72 10.047h2.176l6.288-11.2h-2.192l-6.272 11.2zm5.216-2.416c0 1.697 1.088 2.608 2.544 2.608 1.44 0 2.512-.912 2.512-2.608 0-1.68-1.072-2.591-2.512-2.591-1.456 0-2.544.912-2.544 2.592zm2.528-1.247c.544 0 .896.367.896 1.248 0 .895-.352 1.264-.896 1.264-.56 0-.912-.368-.912-1.264 0-.88.352-1.248.912-1.248z" fill="#232323"/><path d="M14.729 103l-2.324-3.99h-1.54V103H9.591v-9.758h3.15c.737 0 1.358.126 1.862.378.513.252.896.593 1.148 1.022.252.43.378.92.378 1.47 0 .672-.196 1.265-.588 1.778-.383.513-.961.854-1.736 1.022l2.45 4.088h-1.526zm-3.864-5.012h1.876c.69 0 1.209-.168 1.554-.504.345-.345.518-.803.518-1.372 0-.579-.173-1.027-.518-1.344-.336-.317-.854-.476-1.554-.476h-1.876v3.696zm14.244.882c0 .243-.014.5-.042.77h-6.132c.046.756.303 1.349.77 1.778.476.42 1.05.63 1.722.63.55 0 1.008-.126 1.372-.378.373-.261.634-.607.784-1.036h1.372a3.335 3.335 0 01-1.232 1.806c-.616.457-1.382.686-2.296.686-.728 0-1.382-.163-1.96-.49a3.497 3.497 0 01-1.344-1.386c-.327-.607-.49-1.307-.49-2.1 0-.793.158-1.489.476-2.086a3.308 3.308 0 011.33-1.372c.578-.327 1.24-.49 1.988-.49.728 0 1.372.159 1.932.476.56.317.989.756 1.288 1.316.308.55.462 1.176.462 1.876zm-1.316-.266c0-.485-.108-.9-.322-1.246a2.026 2.026 0 00-.882-.798 2.63 2.63 0 00-1.218-.28c-.644 0-1.195.205-1.652.616-.448.41-.705.98-.77 1.708h4.844zm2.521.532c0-.784.159-1.47.476-2.058a3.46 3.46 0 011.302-1.386c.56-.327 1.18-.49 1.862-.49.672 0 1.256.145 1.75.434.495.29.864.653 1.106 1.092v-1.4h1.288V103H32.81v-1.428c-.252.448-.63.821-1.134 1.12-.494.289-1.073.434-1.736.434a3.478 3.478 0 01-1.848-.504 3.534 3.534 0 01-1.302-1.414c-.317-.607-.476-1.297-.476-2.072zm6.496.014c0-.579-.116-1.083-.35-1.512a2.41 2.41 0 00-.952-.98 2.498 2.498 0 00-1.302-.35c-.476 0-.91.112-1.302.336-.392.224-.704.55-.938.98-.233.43-.35.933-.35 1.512 0 .588.117 1.101.35 1.54.234.429.546.761.938.994.392.224.826.336 1.302.336.476 0 .91-.112 1.302-.336.402-.233.719-.565.952-.994.234-.439.35-.947.35-1.526zm2.965 0c0-.793.159-1.484.476-2.072a3.428 3.428 0 011.316-1.386c.57-.327 1.218-.49 1.946-.49.943 0 1.718.229 2.324.686.616.457 1.022 1.092 1.218 1.904h-1.372a1.959 1.959 0 00-.77-1.106c-.373-.27-.84-.406-1.4-.406-.728 0-1.316.252-1.764.756-.448.495-.672 1.2-.672 2.114 0 .924.224 1.638.672 2.142.448.504 1.036.756 1.764.756.56 0 1.027-.131 1.4-.392s.63-.635.77-1.12h1.372c-.205.784-.616 1.414-1.232 1.89-.616.467-1.386.7-2.31.7-.728 0-1.377-.163-1.946-.49a3.432 3.432 0 01-1.316-1.386c-.317-.597-.476-1.297-.476-2.1zm10.534-2.772v4.522c0 .373.08.639.238.798.159.149.434.224.826.224h.938V103h-1.148c-.71 0-1.241-.163-1.596-.49-.355-.327-.532-.863-.532-1.61v-4.522h-.994v-1.05h.994v-1.932h1.274v1.932h2.002v1.05H46.31zm12.192-3.136v7.21c0 .803-.247 1.447-.742 1.932-.495.476-1.148.714-1.96.714-.821 0-1.48-.243-1.974-.728-.495-.495-.742-1.167-.742-2.016h1.274c.01.476.13.863.364 1.162.243.299.602.448 1.078.448.476 0 .83-.14 1.064-.42.233-.289.35-.653.35-1.092v-7.21h1.288zm5.604 9.856c-.644 0-1.223-.112-1.736-.336a2.97 2.97 0 01-1.19-.952 2.474 2.474 0 01-.448-1.414h1.358c.047.457.233.845.56 1.162.336.308.821.462 1.456.462.607 0 1.083-.149 1.428-.448.355-.308.532-.7.532-1.176 0-.373-.103-.677-.308-.91a1.967 1.967 0 00-.77-.532 12.037 12.037 0 00-1.246-.392c-.644-.168-1.162-.336-1.554-.504a2.58 2.58 0 01-.994-.784c-.27-.364-.406-.85-.406-1.456 0-.532.135-1.003.406-1.414.27-.41.649-.728 1.134-.952.495-.224 1.06-.336 1.694-.336.915 0 1.661.229 2.24.686.588.457.92 1.064.994 1.82h-1.4c-.047-.373-.243-.7-.588-.98-.345-.29-.803-.434-1.372-.434-.532 0-.966.14-1.302.42-.336.27-.504.653-.504 1.148 0 .355.098.644.294.868.205.224.453.397.742.518.299.112.714.243 1.246.392.644.177 1.162.355 1.554.532a2.51 2.51 0 011.008.798c.28.355.42.84.42 1.456 0 .476-.126.924-.378 1.344-.252.42-.625.761-1.12 1.022-.495.261-1.078.392-1.75.392z" fill="#000" fill-opacity=".74"/><defs><filter id="filter0_d_8_11" x="3.515" y="6.507" width="72.992" height="72.021" filterUnits="userSpaceOnUse" color-interpolation-filters="sRGB"><feFlood flood-opacity="0" result="BackgroundImageFix"/><feColorMatrix in="SourceAlpha" values="0 0 0 0 0 0 0 0 0 0 0 0 0 0 0 0 0 0 127 0" result="hardAlpha"/><feOffset dy="4"/><feGaussianBlur stdDeviation="5"/><feColorMatrix values="0 0 0 0 0 0 0 0 0 0 0 0 0 0 0 0 0 0 0.13 0"/><feBlend in2="BackgroundImageFix" result="effect1_dropShadow_8_11"/><feBlend in="SourceGraphic" in2="effect1_dropShadow_8_11" result="shape"/></filter></defs></svg>