<svg width="49" height="49" fill="none" xmlns="http://www.w3.org/2000/svg"><rect x=".501" y=".5" width="48" height="48" rx="24" stroke="#EDDFFF"/><path d="M25.001 13c-6.078 0-11 4.922-11 11 0 2.42.77 4.648 2.09 6.462l-1.513 3.988 4.373-1.265A10.883 10.883 0 0025.001 35c6.077 0 11-4.922 11-11s-4.922-11-11-11zm5.857 15.565l-1.182 1.155c-1.237 1.238-4.51-.11-7.397-3.025-2.888-2.887-4.18-6.16-3.026-7.37l1.183-1.183c.44-.44 1.183-.44 1.65 0l1.733 1.733c.605.605.357 1.65-.44 1.898-.55.192-.936.797-.743 1.347.303 1.293 1.98 2.887 3.218 3.19.55.138 1.182-.192 1.347-.742.247-.798 1.293-1.046 1.898-.44l1.732 1.732c.44.468.44 1.21.027 1.705z" fill="#272643"/></svg>