<svg width="24" height="24" fill="none" xmlns="http://www.w3.org/2000/svg"><path d="M12 1C5.923 1 1 5.923 1 12c0 2.42.77 4.648 2.09 6.462L1.578 22.45l4.372-1.265A10.883 10.883 0 0012 23c6.078 0 11-4.922 11-11 0-6.077-4.922-11-11-11zm5.858 15.565l-1.183 1.155c-1.238 1.238-4.51-.11-7.398-3.025-2.887-2.888-4.18-6.16-3.024-7.37l1.182-1.183c.44-.44 1.183-.44 1.65 0l1.732 1.733c.605.605.358 1.65-.44 1.898-.55.192-.934.797-.742 1.347.303 1.293 1.98 2.888 3.217 3.19.55.137 1.183-.193 1.348-.742.248-.798 1.293-1.045 1.898-.44l1.732 1.732c.44.468.44 1.21.028 1.705z" fill="#272643"/></svg>